<svg width="24" height="24" viewBox="0 0 24 24" fill="none" xmlns="http://www.w3.org/2000/svg">
<path fill-rule="evenodd" clip-rule="evenodd" d="M13.1 3.90021H10.6C9.60503 3.90021 8.91295 3.90091 8.37447 3.94491C7.8465 3.98804 7.54593 4.06828 7.3196 4.18359C6.83038 4.43286 6.43263 4.83061 6.18336 5.31984C6.06804 5.54616 5.98781 5.84673 5.94467 6.37471C5.90068 6.91319 5.89998 7.60527 5.89998 8.60021V15.4002C5.89998 16.3952 5.90068 17.0872 5.94467 17.6257C5.98781 18.1537 6.06804 18.4543 6.18336 18.6806C6.43263 19.1698 6.83038 19.5676 7.3196 19.8168C7.54593 19.9321 7.8465 20.0124 8.37447 20.0555C8.91295 20.0995 9.60503 20.1002 10.6 20.1002H14.4C15.3949 20.1002 16.087 20.0995 16.6255 20.0555C17.1535 20.0124 17.454 19.9321 17.6804 19.8168C18.1696 19.5676 18.5673 19.1698 18.8166 18.6806C18.9319 18.4543 19.0121 18.1537 19.0553 17.6257C19.0993 17.0872 19.1 16.3952 19.1 15.4002V9.90021H17.2L17.1646 9.90021C16.6347 9.90023 16.1835 9.90024 15.8131 9.86997C15.4239 9.83818 15.0453 9.76854 14.6834 9.58413C14.1377 9.3061 13.6941 8.86245 13.4161 8.31678C13.2316 7.95485 13.162 7.57625 13.1302 7.18709C13.0999 6.81666 13.1 6.36548 13.1 5.83561L13.1 5.80021V3.90021ZM18.3272 8.10021L14.9 4.673V5.80021C14.9 6.37511 14.9007 6.75216 14.9242 7.04052C14.9469 7.31836 14.9863 7.43371 15.0199 7.4996C15.1253 7.70658 15.2936 7.87486 15.5006 7.98032C15.5665 8.01389 15.6818 8.05325 15.9597 8.07595C16.248 8.09951 16.6251 8.10021 17.2 8.10021H18.3272ZM14.4389 2.16652C14.1594 2.09943 13.8727 2.09978 13.5731 2.10015L13.5059 2.10021H10.6H10.5616C9.61407 2.1002 8.84832 2.10019 8.22789 2.15088C7.58861 2.20312 7.02478 2.31362 6.50242 2.57978C5.6745 3.00162 5.00139 3.67474 4.57955 4.50265C4.31339 5.02502 4.20288 5.58884 4.15065 6.22813C4.09996 6.84855 4.09997 7.6143 4.09998 8.5618V8.60021V15.4002V15.4386C4.09997 16.3861 4.09996 17.1519 4.15065 17.7723C4.20288 18.4116 4.31339 18.9754 4.57955 19.4978C5.00139 20.3257 5.6745 20.9988 6.50242 21.4206C7.02478 21.6868 7.58861 21.7973 8.22789 21.8495C8.84831 21.9002 9.61407 21.9002 10.5616 21.9002H10.6H14.4H14.4384C15.3859 21.9002 16.1516 21.9002 16.7721 21.8495C17.4113 21.7973 17.9752 21.6868 18.4975 21.4206C19.3254 20.9988 19.9986 20.3257 20.4204 19.4978C20.6866 18.9754 20.7971 18.4116 20.8493 17.7723C20.9 17.1519 20.9 16.3861 20.9 15.4386V15.4002V9.49432L20.9 9.42712C20.9004 9.12749 20.9008 8.84074 20.8337 8.56126C20.7749 8.31637 20.6779 8.08227 20.5463 7.86753C20.3961 7.62247 20.1931 7.41996 19.981 7.20836L19.9334 7.16087L15.8393 3.06676L15.7918 3.0192C15.5802 2.80707 15.3777 2.60405 15.1327 2.45387C14.9179 2.32229 14.6838 2.22531 14.4389 2.16652Z" fill="#98A2B3"/>
</svg>
