<svg width="31" height="16" viewBox="0 0 31 16" fill="none" xmlns="http://www.w3.org/2000/svg">
<path d="M14.5712 3.66978L14.6914 3.67678L14.7548 3.80423L14.8661 3.75671L15.0082 3.73571L15.0135 3.84916H15.2527L15.3284 3.88821L15.4109 3.89815L15.4585 3.872L15.6163 3.92578L15.6079 3.67936L15.7737 3.67494L15.8175 3.72724L15.9238 3.7685L16.0026 3.83775L16.0229 3.8488L16.0663 3.80754L16.0471 3.78176L16.0697 3.74382L16.0993 3.76555L16.1926 3.66794L16.1842 3.63295L16.1385 3.61527L16.122 3.53497L16.2306 3.53718L16.2598 3.47493L16.2917 3.45725L16.3738 3.46793L16.3926 3.40973L16.4134 3.40642L16.4276 3.33791L16.4809 3.30697L16.512 3.30402L16.5247 3.26019L16.5504 3.26203L16.5835 3.22961L16.6038 3.23624L16.6675 3.20567L16.6042 3.13642L16.6453 3.14453L16.6099 3.02703L16.7247 2.92536L16.681 2.86717L16.7075 2.85906L16.7102 2.80897L16.6971 2.76808L16.6453 2.76403L16.6549 2.67931L16.5716 2.67305L16.5481 2.62627L16.5071 2.61301L16.5036 2.57249L16.4498 2.49772L16.4725 2.4642L16.504 2.46126L16.5255 2.45278L16.527 2.42258L16.565 2.39495L16.5846 2.41669L16.6076 2.37285L16.5712 2.37506L16.5689 2.31429L16.6787 2.31723L16.6956 2.29808L16.6756 2.27635L16.6817 2.25646L16.6572 2.21925L16.7148 2.22331L16.7213 2.19347L16.7946 2.19863L16.7981 2.23473L16.9033 2.22736L16.901 2.16585L16.9743 2.17137L16.9766 2.22257L17.0234 2.23141L17.0323 2.26235L17.0634 2.27009L17.0768 2.31171L17.0787 2.3677L17.1302 2.38169L17.1544 2.32792L17.1129 2.31944L17.1002 2.26272L17.1317 2.25977L17.1455 2.19973L17.187 2.2082L17.2047 2.17395L17.2411 2.17174L17.2692 2.14301L17.4312 2.14559L17.4385 2.20231L17.4796 2.21594L17.488 2.3386L17.47 2.37764L17.4953 2.3898L17.5122 2.36585L17.6047 2.38832L17.6581 2.36733L17.6646 2.43363L17.6324 2.45131L17.6408 2.48262L17.6093 2.4852L17.6124 2.52056L17.5901 2.53934L17.736 2.53566L17.7476 2.51651L17.7737 2.51835L17.7775 2.53897L17.8535 2.63106L17.8647 2.68778L17.9372 2.67858L17.9234 2.59165L17.991 2.58207L18.009 2.48225L18.3242 2.47378L18.3212 2.50914L18.3311 2.50988L18.32 2.57986L18.4406 2.60049L18.4486 2.62185L18.5147 2.62259L18.5427 2.59459L18.5634 2.59128L18.5811 2.56771L18.6275 2.56144L18.6525 2.51319L18.7285 2.51503L18.7239 2.56034L18.8786 2.72167L18.8487 2.76477L18.8245 2.84875L18.8483 2.91174L18.8007 2.93236L18.8015 2.97288L18.8376 3.01192L18.8475 3.05834L19.0652 3.08449L19.2418 3.0716L19.2768 2.98393L19.4208 2.95336L19.4526 2.98209L19.5221 2.94894L19.6027 2.9482L19.6269 2.91505L19.6523 2.91284L19.668 2.95078L19.6684 3.03808L19.6999 3.07233L19.7206 3.28413L19.8162 3.24508L19.959 3.3147L20.0604 3.31249L20.0696 3.35964L20.1253 3.35706L20.1787 3.45541L20.4674 3.47603L20.4697 3.49666L20.5088 3.50219L20.5261 4.2374L20.5419 4.26944L20.4962 4.27791L20.3914 4.35711L20.3679 4.38363L20.3641 4.60058L20.5008 4.53612L20.5388 4.62047L20.6267 4.62821L20.6997 4.66835L20.6812 4.69524L20.6413 4.6993L20.6121 4.73429L20.5361 4.71366L20.3699 4.8179L20.3587 4.89967L20.2781 4.99102L20.1502 4.95456L20.1019 5.02601L20.0804 4.96487L20.06 4.97187L20.0719 4.99286L20.0109 5.00944L19.9905 4.97739L19.9544 4.99213L19.9422 5.04922L19.9748 5.06322L20.0209 5.16156L20.0132 5.18477L20.0401 5.20282L20.08 5.12068L20.1184 5.12583L20.2155 5.16782L20.1046 5.26949L19.9064 5.331L19.9329 5.39251L19.8915 5.4113L19.8274 5.41756L19.797 5.46692L19.6765 5.41793L19.6327 5.49454L19.6031 5.50081L19.5958 5.51922L19.6173 5.54095L19.567 5.59731L19.4592 5.60357L19.4545 5.64151L19.4273 5.62862L19.3893 5.66251L19.4104 5.68903L19.3563 5.73507L19.4373 5.78774L19.3755 5.81868L19.2898 5.76564L19.2603 5.80984L19.205 5.82752L19.2215 5.93434L19.1716 5.9476L19.182 5.98223L19.0887 5.91408L18.932 5.92992L18.9136 5.96602L18.8671 5.95129L18.9355 5.85883L18.922 5.80506L18.9447 5.77411L18.9378 5.74944L18.9151 5.73728L18.9662 5.67135L18.8817 5.59952L18.828 5.6032L18.818 5.56379L18.7673 5.58221L18.7565 5.54759L18.722 5.55348L18.7235 5.58221L18.6118 5.62788L18.5907 5.73544L18.5373 5.7347L18.5131 5.78001L18.4463 5.77301L18.388 5.81942L18.4037 5.85404L18.305 5.92035L18.2521 5.91961L18.2405 5.93729L18.1914 5.94687L18.1818 6.1826L18.128 6.09236L17.9672 6.16161L18.0136 6.27469L17.9898 6.31963L17.9073 6.33031L17.8002 6.39587L17.7399 6.42313L17.6938 6.40029L17.6969 6.32036L17.7633 6.22754L17.7476 6.19329L17.7126 6.20434L17.69 6.14098L17.4577 6.20544L17.4243 6.2025L17.3989 6.21465L17.3659 6.20692L17.3218 6.21723L17.3398 6.12477L17.2964 6.12109L17.2745 6.09568L17.2465 6.03159L17.2269 6.0349L17.2043 6.07063L17.1905 6.00801L17.0891 6.06105L17.1156 6.14356L17.0542 6.18076L17.0208 6.17818L16.9989 6.15277L16.9912 6.18518L17.0131 6.2106L17.0039 6.26143L16.9843 6.26438L16.9524 6.23859L16.8564 6.28721L16.7597 6.22791L16.7163 6.2246L16.704 6.1955L16.6441 6.21428L16.6184 6.17008L16.6718 6.11299L16.7029 5.97376L16.7359 5.9244L16.7194 5.82826L16.7555 5.80727L16.7658 5.55643L16.5343 5.56269L16.5113 5.60357L16.4203 5.63488L16.2583 5.75165L16.188 5.69897L16.0824 5.72034L16.0383 5.7126L16.0882 5.77743L16.0935 5.83968L16.0049 5.90451L15.6797 5.94502L15.5038 6.05221L15.3979 5.89493L15.4808 5.84778L15.432 5.73139L15.3679 5.70892L15.1832 5.76049L14.9844 5.69271L14.9252 5.65182L14.8327 5.6754L14.7939 5.52585L14.7367 5.55164L14.7121 5.53138L14.676 5.54832L14.6776 5.50559L14.6515 5.52806L14.6534 5.48055L14.6449 5.43708L14.5052 5.35826L14.4587 5.50375L14.3102 5.51996L14.2817 5.46139L14.3309 5.23892L14.1719 5.09121L14.2142 5.05474L14.1501 4.97445L14.2564 4.88347L14.2211 4.85731L14.284 4.68161L14.2161 4.54643L14.1228 4.54165L14.0852 4.41751L14.2149 4.42967L14.4107 4.33316L14.4415 4.20314L14.4745 4.0186L14.5659 3.9453L14.5712 3.66978Z" fill="white"/>
<path d="M9.33086 10.6804L9.26712 10.7128L9.18918 10.7287L9.15233 10.7522L9.11931 10.7957L9.08245 10.8705L9.05365 10.9493L9.04943 11.02L9.0168 11.0359L8.99222 11.0753L8.9903 11.1059L8.68622 11.1884L7.60966 11.5151L7.50254 10.7574L7.43535 10.5788L7.37392 10.4635L7.38774 10.42L7.29982 10.311L7.29061 10.1747L6.85253 10.0494L6.70088 9.98904L6.47704 9.77283L6.43059 9.5997L6.31924 9.46489L6.37799 9.03357L6.4064 8.86597L6.35572 8.78309L6.33921 8.58382L6.22287 8.45895L6.24975 8.36097L6.20828 8.19006L6.17987 8.14365L6.20445 7.97274L6.22633 7.95617L6.22287 7.78342L6.08888 7.77237L6.0885 7.72669L6.03244 7.68765L6.00787 7.72743L5.95911 7.71527L5.96141 7.779L5.94298 7.87292L5.86159 7.86519L5.81667 7.84345L5.63891 7.82541L5.66885 7.75247L5.63698 7.68286L5.65849 7.62024L5.60665 7.36793L5.56749 7.35909L5.53371 7.44233L5.48802 7.4206L5.49915 7.3915L5.40854 7.35209L5.34941 7.29978L5.3425 7.19775L5.39165 7.03679L5.36554 6.97933L5.412 7.00143L5.44233 6.92702L5.49992 6.8773L5.57287 6.87767L5.5863 6.82425L5.67845 6.82241L5.74218 6.83346L5.81552 6.79184L5.79824 6.76127L5.85007 6.69865L5.86581 6.65924H5.94836L5.90459 6.60804L5.97639 6.48686L5.9737 6.45407L6.0071 6.38924L5.9975 6.33326L5.94721 6.31042L5.9449 6.28206L5.90958 6.27174L5.90689 6.17708L5.92072 6.09936L5.86466 6.02459L5.94414 5.94355L5.93147 5.91151L6.02553 5.80395L6.01401 5.78811L6.03705 5.80285L6.05087 5.79806L6.09426 5.73286L6.12113 5.7185L6.13572 5.69492L6.12343 5.64446L6.09349 5.57853L6.0812 5.49675L6.10385 5.45071L6.11921 5.40209L6.14148 5.40983L6.15953 5.40762L6.18525 5.42124L6.19754 5.42088L6.20713 5.41425L6.21366 5.42014L6.2175 5.4415L6.23478 5.44666L6.24706 5.46508L6.2628 5.45918L6.26165 5.43745L6.27893 5.4334L6.28354 5.42345L6.29582 5.42456L6.30197 5.41609L6.32078 5.41461L6.33038 5.41903L6.34842 5.39693L6.34458 5.37446L6.37645 5.35936L6.40064 5.37299L6.41446 5.38883L6.4183 5.41535L6.41331 5.42824L6.38912 5.45734L6.38336 5.47171L6.38912 5.4857L6.41024 5.50412L6.44594 5.52585L6.60221 5.66619L6.61564 5.67135L6.63868 5.65035L6.69934 5.65367L6.7147 5.68829L6.76269 5.71223L6.83948 5.76933L6.85369 5.76969L6.86981 5.7568L6.88478 5.72328L6.94468 5.68976L6.98154 5.67945L7.06293 5.63783L7.10209 5.60284L7.14433 5.57337L7.17235 5.56306L7.18195 5.55311L7.18579 5.54095L7.18119 5.50486L7.1831 5.46765L7.21228 5.37483L7.22419 5.35863L7.23954 5.35347L7.30174 5.38404L7.34743 5.38441L7.36855 5.36636L7.37661 5.31664L7.38736 5.31148L7.42191 5.31848L7.43535 5.30964L7.43958 5.29196L7.42844 5.24407L7.42806 5.20982L7.45301 5.18256L7.45685 5.18145L7.47567 5.20429L7.48219 5.2275L7.52174 5.24812L7.55706 5.29417L7.59238 5.29601L7.62771 5.31442L7.63692 5.30706L7.64268 5.27649L7.62771 5.23707L7.6208 5.19692L7.6254 5.19361L7.66879 5.1925L7.68376 5.18735L7.70219 5.18956L7.74058 5.21902L7.75594 5.22197L7.79625 5.19729L7.81046 5.20392L7.82659 5.22013L7.84463 5.22381L7.92027 5.19656L7.96442 5.17446L7.97863 5.18993L7.99168 5.23339L8.01587 5.25181L8.04466 5.26323L8.06386 5.29417L8.0654 5.33358L8.08843 5.36231L8.156 5.40651L8.20745 5.42088L8.22012 5.41646L8.22243 5.40835L8.21206 5.38404L8.21513 5.3752L8.27695 5.34684L8.31496 5.34721L8.3353 5.38331L8.36679 5.37004L8.37831 5.3299L8.3833 5.18661L8.38944 5.13541L8.40749 5.12657L8.43705 5.12436L8.45433 5.15014L8.47736 5.16635L8.48926 5.16451L8.49848 5.15309L8.51768 5.14867L8.5315 5.17519L8.56413 5.17446L8.57373 5.18808L8.6102 5.1553L8.62095 5.1542L8.639 5.13946L8.64745 5.15199L8.64437 5.1763L8.65129 5.19287L8.70734 5.2054L8.71156 5.20171L8.70696 5.18956L8.71041 5.17961L8.72999 5.17519L8.73767 5.16525L8.7323 5.13246L8.75034 5.12436L8.76301 5.11184L8.76915 5.11515L8.77568 5.10852L8.78183 5.11221L8.79027 5.10005L8.81561 5.11L8.83865 5.17961L8.8494 5.19361L8.8686 5.19692L8.91198 5.18735L8.94922 5.1914L8.97917 5.19729L8.99376 5.2135L9.02255 5.27096L9.02102 5.28643L9.00566 5.30632L8.99453 5.34942L8.9999 5.42345L9.01871 5.47834L9.03599 5.48828L9.05903 5.49049L9.1243 5.46692L9.15309 5.46913L9.16192 5.48128L9.15309 5.51738L9.15885 5.54132L9.2103 5.5649L9.22566 5.60468L9.24946 5.62236L9.29093 5.62788L9.32318 5.61904L9.34084 5.62015L9.39421 5.63857L9.47983 5.64777L9.49941 5.65551L9.51208 5.67503L9.52628 5.67908L9.54394 5.66472L9.60806 5.67945L9.65874 5.66619L9.67333 5.66656L9.72055 5.72881V5.73765L9.70443 5.74465L9.70251 5.75128L9.70366 5.81905L9.70481 5.82789L9.71326 5.82973L9.772 5.801L9.90292 5.76896L9.93786 5.75128L9.98662 5.67319L10.0653 5.47576L10.0876 5.44482L10.1137 5.4345L10.1644 5.4415L10.1978 5.45808L10.2051 5.46839L10.207 5.51996L10.298 5.62899L10.3268 5.64446L10.417 5.65514L10.498 5.66103L10.5756 5.65698L10.6217 5.66582L10.6792 5.66509L10.7534 5.63967L10.8132 5.63672L11.1254 5.5148L11.143 5.50044L11.1546 5.4706L11.1768 5.33026L11.2444 5.00318L11.307 4.98292L11.3565 5.00612L11.4114 4.98292L11.4448 4.92693L11.497 5.00428L11.5036 5.07684L11.5404 5.19582L11.6011 5.21866L11.6406 5.16562L11.6606 5.15162L11.7712 5.21534V5.25954L11.7462 5.26359L11.7213 5.34647L11.8556 5.47207L11.7712 5.52843L11.7861 5.59179L11.7858 5.65956L11.8902 5.62825L11.9585 5.96197L12.0572 6.11262L12.0722 6.17008L12.2346 6.40287L12.2492 6.46033L12.2131 6.58189L12.0948 6.4887L11.9758 6.58999L11.9651 6.70786L11.8472 6.77674L11.8714 6.90382L11.8956 6.93697L11.8076 6.90787L11.7443 6.98706L11.7831 7.02942L11.9194 7.25079L11.8948 7.26884L11.8802 7.25485L11.7685 7.27216L11.7493 7.32336L11.846 7.31489L11.8994 7.49206L12.1075 7.68949L12.2688 7.60514L12.3463 7.67144L12.3509 7.71269L12.3014 7.77605L12.3298 7.8685L12.5732 7.9477L12.6166 7.99447L12.7383 8.03868L12.8593 8.11971L13.0201 8.41438L13.1568 8.64386L13.2248 8.67296L13.0593 8.84792L12.1793 9.438L12.1232 9.45532L12.0906 9.41038L11.876 9.37833L11.9082 9.30687L11.7024 9.05567L11.6091 9.06929L11.5477 8.95695L11.4202 8.77278L10.9668 8.87297L10.71 9.53193L10.3978 9.50725L10.3763 9.73415L10.1475 9.7522L9.84687 10.02L9.78391 10.1143L9.6979 10.2045L9.53396 10.4406L9.33086 10.6804Z" fill="white"/>
<path d="M23.8226 9.38533L23.9117 9.44095L23.9489 9.48294L24.043 9.49104L24.0795 9.58092L24.4116 9.54519L24.6458 9.86012L25.0009 9.74115L25.1603 9.8045L25.1572 9.87817L25.4125 9.98573L25.6294 10.1021L25.8613 10.1076L25.9032 10.1688L25.9385 10.1677L25.9803 10.1415L26.0022 10.1942L26.0264 10.2211L26.0598 10.1758L26.0817 10.1762L26.0537 10.2182L26.0786 10.2233L26.1047 10.2244L26.1309 10.2432L26.155 10.2005L26.1727 10.1997L26.1589 10.2358L26.1213 10.2627L26.1316 10.2738L26.1643 10.2675L26.1378 10.301L26.385 10.5791L26.4434 10.7909L26.5643 10.9173L26.5413 11.072L26.5505 11.1302L26.5778 11.153L26.6549 11.1265L26.6676 11.1431L26.7333 11.181L26.7609 11.2046L26.8899 11.2311L26.9003 11.2451L26.9202 11.318L26.8918 11.448L26.8127 11.56L26.7732 11.5335L26.6787 11.4528L26.6388 11.4433L26.5785 11.4554L26.5355 11.472L26.4641 11.5191L26.4165 11.5236L26.3946 11.5114L26.3816 11.4742L26.3743 11.4705L26.3343 11.4805L26.3151 11.4749L26.3102 11.434L26.3017 11.4182L26.2925 11.3718L26.2648 11.3515L26.2506 11.3276L26.2192 11.311L26.2119 11.3221L26.1965 11.3294L26.1719 11.3239L26.1362 11.3512L26.1255 11.3714L26.0978 11.3777L26.0867 11.3924L26.0667 11.4038L26.0299 11.4097L26.0184 11.3902L26.0138 11.3909L25.978 11.4234L25.9546 11.4182L25.9466 11.4116L25.9239 11.4322L25.8867 11.4381L25.8721 11.4337L25.8667 11.441L25.8387 11.4495L25.8279 11.469L25.8199 11.4709L25.7842 11.4606L25.7826 11.4727L25.7715 11.4841L25.7696 11.497L25.7615 11.5055L25.7461 11.5048L25.717 11.5143L25.6694 11.5129L25.6241 11.5501L25.5968 11.5526L25.5692 11.5357L25.5204 11.5224L25.5035 11.5062L25.4981 11.5084L25.4939 11.5302L25.4793 11.5431L25.4121 11.5703L25.3768 11.5659L25.343 11.5707L25.328 11.5593L25.3108 11.563L25.2923 11.5781L25.2789 11.6134L25.2443 11.6366H25.2152L25.2002 11.6175L25.1902 11.6145L25.1691 11.6223L25.1411 11.6447L25.1234 11.6503L25.0908 11.6521L25.0723 11.6359L25.0466 11.6381L25.0217 11.6318L25.0155 11.6418L25.0247 11.662L25.0224 11.6713L25.0113 11.6654L25.0002 11.6676L24.9572 11.7129L24.8815 11.7589L24.8696 11.7718L24.8504 11.7773L24.842 11.7902L24.8504 11.7991L24.8704 11.7854L24.8869 11.7851L24.9115 11.8009L24.931 11.8035L24.9529 11.8657L24.9833 11.8816L25.0435 11.8727L25.0673 11.8521L25.1234 11.8598L25.1499 11.8407L25.1687 11.8429L25.1802 11.8554L25.176 11.8679L25.1825 11.8713L25.2144 11.8624L25.2321 11.8959L25.2935 11.9254L25.32 11.9501L25.3238 11.9766L25.2601 11.9972L25.2297 12.0267L25.2616 12.0739L25.252 12.0945L25.2321 12.1744L25.2159 12.2017L25.2313 12.2499L25.2459 12.3626L25.2608 12.405V12.4838L25.2716 12.5516L25.2939 12.605L25.2889 12.6256L25.29 12.6356L25.3008 12.6488L25.2989 12.6768L25.338 12.7597L25.3357 12.7899L25.348 12.8441L25.3618 12.8536L25.4002 12.9358L25.4947 13.1641L25.5062 13.1789L25.5162 13.2135L25.5073 13.2433L25.5085 13.2625L25.4897 13.2809L25.4528 13.3568L25.4544 13.3638L25.4632 13.3745L25.5154 13.3711L25.5258 13.3756L25.5273 13.4028L25.5427 13.4323L25.5434 13.457L25.5565 13.4868L25.5396 13.517L25.5162 13.5189L25.4989 13.5329L25.4797 13.5218L25.459 13.5181L25.4025 13.5336L25.3346 13.5874L25.2658 13.6061L25.2501 13.6235L25.2497 13.654L25.2616 13.6754L25.2862 13.6986L25.3204 13.72L25.3841 13.7358L25.4006 13.7634L25.3987 13.7679L25.3906 13.7664L25.3695 13.7774L25.3611 13.769L25.358 13.7774L25.3449 13.7822L25.3326 13.7771L25.3277 13.7874L25.2731 13.8095L25.2735 13.8191L25.257 13.8297L25.2455 13.8257L25.2255 13.8334L25.2251 13.8253L25.2044 13.833L25.2006 13.8224L25.1937 13.822L25.153 13.8286L25.1507 13.8581L25.1384 13.8876L25.1234 13.9487L25.0969 13.9734L25.0854 14.0146L25.0931 14.0533L25.1169 14.1008L25.1391 14.1207L25.1595 14.1226L25.1676 14.1314L25.1533 14.1472L25.1219 14.1623L25.1173 14.1841L25.1161 14.2165L25.1318 14.2375L25.1307 14.2898L25.1656 14.3137L25.1568 14.3428L25.1748 14.3668L25.1683 14.4021L25.1437 14.4158L25.1299 14.4165L25.1165 14.4062L25.1077 14.4058L25.0862 14.4228L25.0746 14.4206L25.0547 14.4338L25.0489 14.4305L25.0439 14.4139L25.0501 14.366L25.0362 14.3458L25.024 14.3123L25.0067 14.3016L24.9775 14.2946L24.9476 14.267L24.9353 14.2331L24.9245 14.2147L24.9157 14.2091L24.8711 14.2062L24.8642 14.2205L24.8543 14.2231L24.8485 14.2161V14.2029L24.8431 14.201L24.8101 14.1984L24.7982 14.1911L24.7802 14.1937L24.7702 14.1782L24.7103 14.169L24.6742 14.1933L24.6423 14.1881L24.5951 14.1889L24.5763 14.1587L24.5095 14.1071L24.4914 14.0692L24.4822 14.0607L24.4385 14.0283L24.4031 14.0191L24.3893 14.0017L24.3782 13.9977L24.3475 13.9461L24.3398 13.906L24.3432 13.8879L24.3521 13.8761L24.3475 13.8721L24.3294 13.8725L24.2895 13.885L24.2776 13.9097L24.2699 13.9145L24.2473 13.8861L24.2338 13.8787L24.2046 13.882L24.1831 13.8743L24.162 13.8802L24.1417 13.8669L24.1025 13.8596L24.0833 13.8496L24.0637 13.8515L24.0415 13.833L24.0188 13.8342L24.0081 13.8264L23.9804 13.836L23.9593 13.8087L23.8829 13.7918L23.866 13.766L23.8372 13.7557L23.7723 13.7815L23.7485 13.773L23.7358 13.797L23.7174 13.8025L23.6034 13.7774L23.588 13.8003L23.5508 13.794L23.5327 13.7995L23.5147 13.8191L23.5001 13.7988L23.4867 13.7911L23.4751 13.7914L23.4471 13.808L23.4233 13.7833L23.3999 13.7903L23.3723 13.7774L23.3465 13.7789L23.3331 13.7734L23.3108 13.7491L23.2498 13.7527L23.2041 13.7432L23.1596 13.7424L23.1204 13.7284L23.0843 13.7325L23.0613 13.7244L22.9822 13.7443L22.9196 13.7461L22.8923 13.738L22.8704 13.7089L22.857 13.7012L22.7906 13.6946L22.758 13.6997L22.6731 13.6783L22.6113 13.6791L22.5787 13.7097L22.5437 13.7144L22.5314 13.745L22.5195 13.7542L22.4335 13.7469L22.4028 13.7498L22.364 13.741L22.3425 13.7701L22.3122 13.773L22.2396 13.7929L22.2216 13.7922L22.2158 13.7874L22.2043 13.7539L22.1809 13.7406L22.0811 13.7365L22.0074 13.7498L21.9981 13.7458L21.9862 13.7299L21.9517 13.7262L21.9267 13.7063L21.9033 13.7174L21.8784 13.7104L21.8423 13.7281L21.8365 13.7288L21.8288 13.6942L21.79 13.7104L21.7486 13.6853L21.6764 13.6931L21.668 13.6772L21.711 13.6647L21.7309 13.6257L21.5904 13.5619L21.5182 13.5476L21.5006 13.4776L21.4718 13.4654L21.4821 13.4231L21.4537 13.4069L21.4622 13.3236L21.5612 13.2083L21.5343 13.1649L21.4226 13.1781L21.4338 13.1439L21.3915 13.1387L21.3662 13.1553L21.2402 13.1129L21.2399 13.0496L21.403 12.9008L21.4314 12.8879L21.4491 12.8418L21.4318 12.7708L21.4648 12.7343L21.4817 12.6916L21.4783 12.5685L21.4007 12.5177L21.3585 12.4628L21.312 12.4566L21.2406 12.3936L21.228 12.3921L21.0613 12.3748L20.9189 12.244L20.8947 12.2076L20.9289 12.0867L20.8575 11.9685L20.6179 11.8075L20.6033 11.7637L20.5741 11.7302L20.568 11.6072L20.3587 11.602L20.3453 11.4138L20.5707 11.4296L20.53 11.3269L20.4977 10.9511L20.5687 10.8362L20.6286 10.7106L20.6939 10.6071L20.7795 10.5147L20.9381 10.3585L21.1412 10.1824L21.5677 9.94705L21.7455 9.98131L21.9736 9.94079L22.2281 9.98388L22.2274 10.0141L22.2704 10.0251L22.3214 9.96731L22.3421 10.0273L22.3652 10.0005L22.4331 10.024L22.4566 9.97099L22.5049 9.97836L22.5737 9.99788L22.6869 10.0461L22.6063 9.96805L22.6581 9.95884L22.7368 9.99751L22.8109 9.98757L22.8854 10.0255L22.91 10.0859L22.966 10.0778L22.9649 10.0122L23.191 9.98794L23.1588 9.44721L23.1791 9.41111L23.3719 9.45237L23.4813 9.3345L23.5765 9.43064L23.6967 9.28367L23.8226 9.38533Z" fill="white"/>
<path d="M2.47909 10.4535L2.47372 10.4579L2.4622 10.4554L2.43916 10.4093L2.43148 10.4053L2.43763 10.3983L2.41689 10.3541L2.41305 10.3246L2.39578 10.3066L2.39309 10.2981L2.39731 10.2922L2.40883 10.2881L2.44953 10.3036L2.48639 10.3434L2.49906 10.3891L2.47909 10.4535ZM5.34941 7.29978L5.40816 7.35246L5.49877 7.3915L5.48763 7.42097L5.53294 7.4427L5.56672 7.35945L5.60589 7.36829L5.65772 7.62061L5.63622 7.68323L5.6677 7.75284L5.63814 7.82577L5.81552 7.84382L5.86044 7.86556L5.94183 7.87329L5.96026 7.77936L5.95834 7.71564L6.0071 7.7278L6.03129 7.68801L6.08773 7.72706V7.77273L6.22172 7.78378L6.22518 7.95654L6.2033 7.97274L6.17872 8.14365L6.20713 8.19006L6.2486 8.36097L6.22172 8.45895L6.33806 8.58382L6.35457 8.78309L6.40525 8.86597L6.37683 9.03393L6.31809 9.46489L6.42943 9.60007L6.47589 9.77319L6.69973 9.98904L6.85138 10.0494L7.28946 10.1747L7.29867 10.311L7.38659 10.4196L7.37277 10.4631L7.43382 10.5784L7.36701 10.5401L7.30865 10.5441L7.27372 10.5128L7.22227 10.5382L7.14318 10.5154L7.1236 10.4579L7.09058 10.4439L7.05257 10.469L7.01417 10.4473L6.9585 10.4318L6.94622 10.399L6.95812 10.3423L6.93239 10.2682L6.89592 10.2635L6.87442 10.2745L6.8629 10.2929L6.84102 10.2996L6.79264 10.2708L6.70242 10.1482L6.52657 10.3154L6.44402 10.3043L6.14916 10.3338L6.00633 10.3872L5.89346 10.3898L5.82435 10.4163L5.77597 10.4274L5.73028 10.4252L5.6773 10.4369L5.66233 10.4605L5.54714 10.4469L5.55751 10.4926L5.5172 10.5666L5.3475 10.6878L5.42582 10.732L5.37744 10.7766L5.30181 10.8204L5.21158 10.8576L5.15821 10.8646L5.1083 10.8963L4.99312 10.8815L4.96932 10.9386L4.86872 10.9335L4.69787 10.893L4.69672 10.8837L4.72475 10.8882L4.73819 10.8826L4.70977 10.8731L4.70517 10.8639L4.70785 10.8392L4.7236 10.8325L4.72129 10.8156L4.72859 10.8097L4.78618 10.8042L4.75585 10.7872L4.75086 10.7718L4.76084 10.7618L4.79117 10.7541L4.77466 10.7364L4.76429 10.711L4.74625 10.697L4.74202 10.6841L4.74855 10.6775L4.78119 10.6771L4.79194 10.6579L4.75047 10.623L4.7355 10.6174L4.71285 10.5916L4.72859 10.5718L4.75469 10.5721L4.7282 10.5596L4.72513 10.5452L4.71477 10.5419L4.72283 10.5294L4.72129 10.515L4.74241 10.4996L4.77504 10.5036L4.76314 10.4845L4.77466 10.4771L4.75892 10.4719L4.75662 10.462L4.78272 10.4484L4.80115 10.4189L4.81612 10.4355L4.81382 10.4207L4.81881 10.4067L4.81421 10.402L4.80384 10.4053L4.79654 10.3935L4.80653 10.378L4.80883 10.3574L4.82572 10.3342L4.82841 10.3062L4.87448 10.2587L4.89522 10.252L4.87564 10.245L4.87372 10.2388L4.89752 10.2355L4.90174 10.2299L4.886 10.2215L4.87103 10.1983L4.83916 10.171L4.84991 10.115L4.84108 10.0774L4.86911 10.0513L4.83955 10.0406L4.84991 10.0163L4.83532 9.9651L4.82764 9.96289L4.81728 9.96805L4.80614 9.96289L4.78925 9.97394L4.77927 9.96952L4.7881 9.95294L4.80154 9.94889L4.77735 9.92532L4.76928 9.92827L4.76314 9.92421L4.76928 9.8988L4.78349 9.88848L4.77428 9.87007L4.75892 9.86417L4.75431 9.86675L4.73627 9.89511L4.69941 9.91611L4.67906 9.94705L4.67829 9.97357L4.66562 9.97247L4.65257 9.96363L4.6541 9.94521L4.64758 9.93416L4.65065 9.922L4.66063 9.91243L4.65602 9.89659L4.64259 9.88812L4.62838 9.89364L4.61878 9.90543L4.6111 9.90322L4.61264 9.87559L4.61878 9.86638L4.60534 9.86196L4.60266 9.85165L4.57194 9.83986L4.56772 9.83323L4.57117 9.82697L4.58499 9.83065L4.60112 9.81334L4.59459 9.8045L4.59843 9.78682L4.58999 9.77283L4.57271 9.76141L4.46213 9.78203L4.43334 9.81224L4.41606 9.82034L4.40685 9.81887L4.39341 9.79014L4.37652 9.78719L4.35617 9.87596L4.34734 9.88591L4.32507 9.89475H4.29243L4.23715 9.86565L4.16343 9.85275L4.10891 9.82366L4.06975 9.82771L4.05286 9.81924L4.05209 9.81113L4.04287 9.81482L4.03865 9.80598L3.99066 9.78977L3.93691 9.78203L3.90965 9.78351L3.88123 9.76398L3.88584 9.80377L3.90312 9.81997L3.92232 9.82918L3.93268 9.84613L3.93 9.88848L3.92001 9.90801L3.91502 9.90469L3.91924 9.91648L3.91425 9.91685L3.9012 9.88296L3.90773 9.85239L3.89198 9.83655L3.87855 9.83471L3.87471 9.82034L3.85973 9.80745L3.84169 9.74262L3.83555 9.74299L3.83439 9.75514L3.82633 9.75588L3.81673 9.76914L3.79792 9.77246L3.77258 9.7975L3.76452 9.80119L3.75991 9.79492L3.77988 9.77504L3.79869 9.76472L3.80637 9.73525L3.81328 9.73489L3.8152 9.72899L3.80905 9.71905L3.82172 9.7091L3.82441 9.68921L3.79024 9.70652L3.7626 9.73894L3.77911 9.708L3.77872 9.69658L3.73611 9.64943L3.63859 9.62181L3.60864 9.62623L3.59866 9.61849L3.57869 9.62696L3.54183 9.61518L3.52494 9.62291L3.50997 9.62217L3.45737 9.66564L3.44546 9.66638L3.43471 9.67411L3.42896 9.701L3.41667 9.69805L3.40477 9.70468L3.36829 9.70358L3.35102 9.69547L3.33259 9.6951L3.29112 9.67558L3.2558 9.68369L3.24044 9.69326L3.22432 9.715L3.21817 9.71794L3.21126 9.71094L3.19974 9.71315L3.16557 9.7743L3.14561 9.79272L3.13064 9.79345L3.12411 9.78645L3.1314 9.75809L3.12833 9.74483L3.11873 9.74004L3.10798 9.74483L3.08341 9.76214L3.06421 9.78645L3.05884 9.82476L3.03849 9.87633L3.02928 9.88517L3.01622 9.88222L3.00816 9.87117L3.01776 9.83876L3.01277 9.83176L2.98781 9.85128L2.97668 9.85091L2.96976 9.80782L2.95134 9.78093L2.91448 9.8406L2.9068 9.86196L2.89336 9.87559L2.88799 9.87743L2.87877 9.86638L2.88491 9.8336L2.87608 9.83323L2.85497 9.84539L2.84383 9.85975L2.85074 9.86859L2.8254 9.88848L2.80621 9.92679L2.79738 9.95921L2.78394 9.9791L2.77396 9.96805L2.77088 9.89254L2.72059 9.94374L2.69832 9.95884L2.64457 10.0358L2.63535 10.0675L2.58429 10.0542L2.55741 10.0664L2.52785 10.1113L2.53169 10.1463L2.52132 10.1607L2.50174 10.1699L2.48946 10.1868L2.45721 10.1765L2.43686 10.1607L2.44646 10.189L2.4407 10.2115L2.47679 10.2395L2.46911 10.2428L2.44646 10.2325L2.44108 10.2384L2.47218 10.2627L2.48408 10.2819L2.48063 10.29L2.46028 10.2845L2.41229 10.2576L2.39616 10.2557L2.37658 10.2863L2.36353 10.2845L2.35316 10.2738L2.34471 10.276L2.3378 10.3058L2.34778 10.3235L2.33396 10.3375L2.32475 10.332L2.31208 10.3058L2.2925 10.2833L2.28597 10.2837L2.28981 10.3121L2.30286 10.332L2.30363 10.343L2.3259 10.3647L2.33051 10.3839L2.32552 10.3894L2.27484 10.3611L2.24988 10.3419L2.24604 10.3334L2.22838 10.3331L2.19728 10.311L2.18883 10.3113L2.18192 10.3239L2.16042 10.2811L2.15121 10.2763L2.15351 10.2616L2.14852 10.2517L2.15658 10.2388L2.18039 10.2454L2.15006 10.213L2.15198 10.1997L2.14775 10.192L2.10897 10.1787L2.09208 10.1809L2.08632 10.1854L2.09976 10.2005H2.11397L2.12126 10.2078L2.12472 10.2196L2.12049 10.2344L2.12971 10.2679L2.16887 10.3091L2.17309 10.3239L2.16772 10.339L2.18384 10.3485L2.18845 10.357V10.3673L2.18231 10.374L2.16925 10.3747L2.16196 10.3876H2.15466L2.13163 10.3706L2.13393 10.3614L2.12126 10.3194L2.12472 10.304L2.11473 10.3003L2.11896 10.29L2.09707 10.2384L2.07288 10.2167L2.04063 10.199L2.03948 10.1913L2.03065 10.1846L2.01606 10.1821L2.02182 10.1905L2.01836 10.1949L1.99917 10.1813L1.99686 10.185L2.01414 10.2204L2.03334 10.2285L2.03603 10.2148L2.04486 10.2211L2.04946 10.2366L2.06098 10.2487L2.05753 10.2601L2.06329 10.2767L2.05369 10.2752L2.03795 10.2546L2.01453 10.2406L2.01145 10.2472L2.0222 10.255L2.03103 10.2767L2.01337 10.2833L2.01491 10.2598L1.9984 10.2458L1.98611 10.2251L1.98803 10.217L1.99533 10.213L1.97997 10.1994L1.96653 10.199L1.96308 10.2038L1.97229 10.2233L1.96116 10.2299L1.9769 10.2443L1.97882 10.2587L1.99379 10.2775L2.01414 10.2944L2.01184 10.3029L1.97076 10.2815L1.89666 10.2616L1.8836 10.2417L1.85404 10.2244L1.83292 10.2204L1.79453 10.2019L1.76343 10.1732L1.73732 10.1754L1.71083 10.1397L1.70085 10.1132L1.67512 10.0999L1.66245 10.1003L1.64786 10.0892L1.62406 10.0859L1.59872 10.0377L1.58298 10.0472L1.53921 10.0384L1.52769 10.0266L1.53153 10.0075L1.52846 10.0001L1.50312 9.99715L1.48162 9.9872L1.482 9.96547L1.50427 9.90874L1.5561 9.86638L1.61254 9.86933L1.63596 9.88664L1.64057 9.91685L1.6828 9.95626L1.71966 9.96031L1.80413 9.95073L1.83523 9.92605L1.87208 9.87375L1.84636 9.80303L1.70507 9.6196L1.66936 9.5404L1.61561 9.41222L1.60218 9.36765L1.57568 9.19637L1.47548 9.19453L1.40675 9.17611L1.32996 9.05824L1.29694 8.98273L1.25855 8.91827L1.1618 8.8284L1.12379 8.82398L1.09346 8.83319L0.965605 8.84534L0.889586 8.84682L0.789761 8.81661L0.681875 8.77241L0.683411 8.80151L0.675348 8.85971L0.658455 8.91975L0.524076 8.84313L0.481075 8.80114L0.463798 8.77241L0.495665 8.75657L0.498736 8.74994L0.430779 8.63318L0.391233 8.57645L0.481843 8.53373L0.496816 8.51163L0.524076 8.5142L0.532523 8.49284L0.449976 8.46448L0.44844 8.44496L0.466101 8.40996L0.464182 8.37902L0.456887 8.36024L0.449976 8.35103L0.405439 8.33187L0.389698 8.3072L0.502576 8.34329L0.590113 8.33887L0.969829 8.39597L1.6279 8.46632L1.83446 8.52194L2.19997 8.6608L2.19421 8.5503L2.42649 8.56246L2.46719 8.53078L2.59274 8.53373L2.74401 8.38492L3.15405 8.12082L3.2009 8.11971L3.27077 8.05599L3.30149 8.07072L3.37021 8.0302L3.41168 7.90534L3.56602 7.89502L3.65471 7.85598L3.97031 7.90828L3.99027 7.94733L3.96455 7.96464L3.95879 8.05304L4.19798 8.10534L4.22448 8.06041L4.25711 8.05599L4.42105 8.14513L4.5013 8.14328L4.55389 8.11271L4.537 8.05967L4.58883 7.84861L4.67906 7.84493L4.66754 7.58156L4.73358 7.60956L4.77812 7.51011L4.82419 7.53147L5.08335 7.53184L5.19891 7.49685L5.17933 7.45301L5.32369 7.33551L5.34941 7.29978Z" fill="white"/>
<path d="M20.2781 4.99102L20.5353 5.08053L20.5384 5.16377L20.571 5.21203L20.538 5.30927L20.5215 5.39435L20.5257 5.50596L20.4858 5.5148L20.4655 5.55532L20.4977 5.6032L20.4424 5.6533L20.5522 5.76933L20.6624 5.7417L20.7699 5.73323L20.8302 5.68461L20.8402 5.71481L20.9623 5.73765L21.0034 5.78701L20.9604 5.81905L21.0099 5.94097L21.0621 5.81537L21.1665 5.92219L21.2095 5.92403L21.2671 6.01906L21.241 6.03379L21.2614 6.08941L21.3474 6.1222L21.3596 6.16677L21.3343 6.17708L21.3454 6.19771L21.3051 6.21023L21.2975 6.19955L21.1957 6.2408L21.1969 6.26474L21.1493 6.29532L21.175 6.37967L21.223 6.37746L21.2372 6.40803L21.312 6.38667L21.4664 6.27874L21.5025 6.23233L21.7213 6.23933L21.7478 6.22496L21.7582 6.18887L21.7939 6.17561L21.8269 6.20949L22.0891 6.14025L22.1859 6.19476L22.2212 6.18666L22.2558 6.09752L22.273 6.11004L22.3318 6.07763L22.4159 6.06879L22.4996 6.11667L22.5276 6.06952L22.523 5.95939L22.5694 5.78185L22.6462 5.71002L22.7902 5.67429L22.9223 5.80837L23.0782 5.81426L23.201 5.88977L23.2452 6.04042L23.1857 6.11888L23.2717 6.17782L23.2548 6.2408L23.145 6.32847L23.0862 6.40692L22.9806 6.45334L22.9476 6.47544L22.8797 6.47728L22.8589 6.56236L22.8816 6.59478L22.8643 6.66182L22.8839 6.71228L22.8685 6.77011L22.8021 6.8703L22.6078 6.93881L22.4316 7.02021L22.4205 7.0832L22.4804 7.14913L22.4784 7.18597L22.5414 7.20586L22.6535 7.29463L22.6554 7.36387L22.7157 7.39739L22.7879 7.46959L22.7165 7.49869L22.7011 7.47769L22.6389 7.50863L22.6455 7.55099L22.6282 7.62171L22.6808 7.72227L22.9864 7.67402L23.0171 7.76168L22.9856 7.87955L22.9864 7.92523L22.8489 8.06078L22.7917 8.04199L22.7537 8.04494L22.715 8.07919L22.7234 8.13518L22.6643 8.15249L22.6919 8.20701L22.7564 8.23574L22.7668 8.28289L22.8835 8.27994L22.9188 8.29025L22.9027 8.32819L22.837 8.33077L22.8175 8.38602L22.9134 8.47L22.9887 8.46448L23.0417 8.505L22.9027 8.55362L22.9472 8.61513L22.8962 8.6155L22.8893 8.7039L22.8524 8.70243L22.8155 8.85308L22.7706 8.94848L22.786 8.99084L22.8029 8.9982L22.842 9.16027L22.8501 9.21479L22.7821 9.18606L22.7115 9.19674L22.7153 9.27741L22.6835 9.35181L22.6247 9.37318L22.6915 9.40633L22.7303 9.46968L22.8029 9.52125L22.9138 9.56103L22.9499 9.46563L22.9964 9.438L23.0843 9.47926L23.1588 9.44721L23.191 9.98794L22.9649 10.0122L22.966 10.0778L22.91 10.0859L22.8854 10.0255L22.8109 9.98757L22.7368 9.99751L22.6581 9.95884L22.6063 9.96805L22.6869 10.0461L22.5737 9.99788L22.5049 9.97836L22.4566 9.97099L22.4331 10.024L22.3652 10.0005L22.3421 10.0273L22.3214 9.96731L22.2704 10.0251L22.2274 10.0141L22.2281 9.98388L21.9736 9.94079L21.7455 9.98131L21.5677 9.94705L21.1412 10.1824L20.9381 10.3585L20.7795 10.5147L20.6939 10.6071L20.6286 10.7106L19.3954 10.697L18.6809 10.7224L18.5488 10.7132L17.9507 10.7279L16.8937 10.7301L15.4823 10.7088L15.4704 10.6093L15.4343 10.599L15.1383 10.6149L14.1643 10.3611L14.0264 10.2874L13.8905 10.1401L13.735 10.1272L13.3599 9.93342L13.2831 9.93121L12.9088 9.79087L12.8761 9.7592L12.804 9.80192L12.5828 9.68295L12.4838 9.69032L12.3713 9.61775L12.2822 9.53709L11.9739 9.59197L12.1793 9.438L13.0593 8.84792L13.2248 8.67296L13.1568 8.64386L13.0201 8.41438L13.2309 8.23058L13.1894 8.1024L13.4678 8.04346L13.4106 7.97311L13.4363 7.93333L13.4083 7.86813L13.5665 7.87403L13.6049 7.59667L14.1804 7.68802L14.2357 7.65818L14.2898 7.66518L14.3747 7.63645L14.4242 7.51968L14.6565 7.51158L14.8807 7.27437L14.9943 7.26148L15.0427 7.0983L15.1406 7.10788L15.1805 7.01285L15.2946 6.91302L15.452 6.82462L15.7004 6.55131L15.8663 6.34689L15.8313 6.27911L15.8524 6.25701L15.8263 6.20839L15.8528 6.17708L15.9772 6.16161L16.1143 6.10525L16.1665 6.06179L16.1903 6.00691L16.2329 5.96271L16.2202 5.93324L16.1396 5.88977L16.1362 5.8662L16.0935 5.83968L16.0882 5.77743L16.0383 5.7126L16.0824 5.72034L16.188 5.69897L16.2583 5.75165L16.4203 5.63488L16.5113 5.60357L16.5343 5.56269L16.7658 5.55643L16.7555 5.80727L16.7194 5.82826L16.7359 5.9244L16.7029 5.97376L16.6718 6.11299L16.6184 6.17008L16.6441 6.21428L16.704 6.1955L16.7163 6.2246L16.7597 6.22791L16.8564 6.28721L16.9524 6.23859L16.9843 6.26438L17.0039 6.26143L17.0131 6.2106L16.9912 6.18518L16.9989 6.15277L17.0208 6.17818L17.0542 6.18076L17.1156 6.14356L17.0891 6.06105L17.1905 6.00801L17.2043 6.07063L17.2269 6.0349L17.2465 6.03159L17.2745 6.09568L17.2964 6.12109L17.3398 6.12477L17.3218 6.21723L17.3659 6.20692L17.3989 6.21465L17.4243 6.2025L17.4577 6.20544L17.69 6.14098L17.7126 6.20434L17.7476 6.19329L17.7633 6.22754L17.6969 6.32036L17.6938 6.40029L17.7399 6.42313L17.8002 6.39587L17.9073 6.33031L17.9898 6.31963L18.0136 6.27469L17.9672 6.16161L18.128 6.09236L18.1818 6.1826L18.1914 5.94687L18.2405 5.93729L18.2521 5.91961L18.305 5.92035L18.4037 5.85404L18.388 5.81942L18.4463 5.77301L18.5131 5.78001L18.5373 5.7347L18.5907 5.73544L18.6118 5.62788L18.7235 5.58221L18.722 5.55348L18.7565 5.54759L18.7673 5.58221L18.818 5.56379L18.828 5.6032L18.8817 5.59952L18.9662 5.67135L18.9151 5.73728L18.9378 5.74944L18.9447 5.77411L18.922 5.80506L18.9355 5.85883L18.8671 5.95129L18.9136 5.96602L18.932 5.92992L19.0887 5.91408L19.182 5.98223L19.1716 5.9476L19.2215 5.93434L19.205 5.82752L19.2603 5.80984L19.2898 5.76564L19.3755 5.81868L19.4373 5.78774L19.3563 5.73507L19.4104 5.68903L19.3893 5.66251L19.4273 5.62862L19.4545 5.64151L19.4592 5.60357L19.567 5.59731L19.6173 5.54095L19.5958 5.51922L19.6031 5.50081L19.6327 5.49454L19.6765 5.41793L19.797 5.46692L19.8274 5.41756L19.8915 5.4113L19.9329 5.39251L19.9064 5.331L20.1046 5.26949L20.2155 5.16782L20.1184 5.12583L20.08 5.12068L20.0401 5.20282L20.0132 5.18477L20.0209 5.16156L19.9748 5.06322L19.9422 5.04922L19.9544 4.99213L19.9905 4.97739L20.0109 5.00944L20.0719 4.99286L20.06 4.97187L20.0804 4.96487L20.1019 5.02601L20.1502 4.95456L20.2781 4.99102Z" fill="white"/>
<path d="M14.5194 1.01478L14.5467 1.0122L14.6054 0.992311L14.6438 1.13191L14.6595 1.15401L14.638 1.18348L14.7229 1.40743L14.5797 1.45642L14.7206 1.54114L14.7728 1.54593L14.8135 1.64943L14.7924 1.66895L14.7248 1.67522L14.5298 1.77393L14.6077 2.01409L14.7033 1.9942L14.7048 2.18795L14.6442 2.24504L14.6108 2.2885L14.6434 2.38206L14.7693 2.39495L14.777 2.71394L14.8895 2.78134L14.8707 2.86091L14.7613 2.8388L14.7125 2.87601L14.6338 2.87085L14.6008 2.90916L14.6277 3.02629L14.6645 3.0285L14.6707 3.139L14.6549 3.1379L14.6599 3.27308L14.5804 3.29297L14.5712 3.66978L14.5659 3.9453L14.4745 4.0186L14.4415 4.20314L14.4107 4.33316L14.2149 4.42967L14.0852 4.41751L14.1228 4.54165L14.2161 4.54643L14.284 4.68161L14.2211 4.85731L14.2564 4.88347L14.1501 4.97445L14.2142 5.05474L14.1719 5.09121L14.3309 5.23892L14.2817 5.46139L14.3102 5.51996L14.4587 5.50375L14.5052 5.35826L14.6449 5.43708L14.6534 5.48055L14.6515 5.52806L14.6776 5.50559L14.676 5.54832L14.7121 5.53138L14.7367 5.55164L14.7939 5.52585L14.8327 5.6754L14.9252 5.65182L14.9844 5.69271L15.1832 5.76049L15.3679 5.70892L15.432 5.73139L15.4808 5.84778L15.3979 5.89493L15.5038 6.05221L15.6797 5.94502L16.0049 5.90451L16.0935 5.83968L16.1362 5.8662L16.1396 5.88977L16.2202 5.93324L16.2329 5.96271L16.1903 6.00691L16.1665 6.06179L16.1143 6.10525L15.9772 6.16161L15.8528 6.17708L15.8263 6.20839L15.8524 6.25701L15.8313 6.27911L15.8663 6.34689L15.7004 6.55131L15.452 6.82462L15.2946 6.91302L15.1805 7.01285L15.1406 7.10788L15.0427 7.0983L14.9943 7.26148L14.8807 7.27437L14.6565 7.51158L14.4242 7.51968L14.3747 7.63645L14.2898 7.66518L14.2357 7.65818L14.1804 7.68802L13.6049 7.59667L13.5665 7.87403L13.4083 7.86813L13.4363 7.93333L13.4106 7.97311L13.4678 8.04346L13.1894 8.1024L13.2309 8.23058L13.0201 8.41438L12.8593 8.11971L12.7383 8.03868L12.6166 7.99447L12.5732 7.9477L12.3298 7.8685L12.3014 7.77605L12.3509 7.71269L12.3463 7.67144L12.2688 7.60514L12.1075 7.68949L11.8994 7.49206L11.846 7.31489L11.7493 7.32336L11.7685 7.27216L11.8802 7.25485L11.8948 7.26884L11.9194 7.25079L11.7831 7.02942L11.7443 6.98706L11.8076 6.90787L11.8956 6.93697L11.8714 6.90382L11.8472 6.77674L11.9651 6.70786L11.9758 6.58999L12.0948 6.4887L12.2131 6.58189L12.2492 6.46033L12.2346 6.40287L12.0722 6.17008L12.0572 6.11262L11.9585 5.96197L11.8902 5.62825L11.7858 5.65956L11.7861 5.59179L11.7712 5.52843L11.8556 5.47207L11.7213 5.34647L11.7462 5.26359L11.7712 5.25954V5.21534L11.6606 5.15162L11.6406 5.16562L11.6011 5.21866L11.5404 5.19582L11.5036 5.07684L11.497 5.00428L11.4448 4.92693L11.4114 4.98292L11.3565 5.00612L11.307 4.98292L11.3112 4.98181L11.2425 4.92214L11.2191 4.89562L11.1876 4.81164L11.1672 4.7958L11.1434 4.78954L11.092 4.82637L11.0689 4.82785L11.0225 4.81606L10.9422 4.76265L10.9073 4.76081L10.8973 4.7667L10.88 4.7516L10.8094 4.75307L10.8017 4.72066L10.7798 4.71734L10.771 4.6864L10.7545 4.6632L10.743 4.626L10.7518 4.59469L10.7472 4.58622L10.6869 4.57995L10.5207 4.58216L10.4639 4.56853L10.4285 4.55417L10.3621 4.50076L10.3533 4.48566L10.4424 4.4002L10.4516 4.38915L10.4493 4.37L10.417 4.36042L10.3633 4.35305L10.197 4.24881L10.1913 4.25618L10.1986 4.27276L10.1989 4.29338L10.1759 4.29522L10.1675 4.29154L10.1383 4.27386L10.1072 4.23113L10.1026 4.2164L10.1018 4.19135L10.1114 4.14826L10.1609 4.13905L10.2331 4.13684L10.2646 4.12358L10.3045 4.09153L10.3418 4.04254L10.437 3.95709L10.4654 3.94235L10.5449 3.95525L10.5583 3.94788L10.5829 3.94862L10.6002 3.94162L10.6355 3.91105L10.6547 3.86869L10.6885 3.86611L10.7806 3.8197L10.8052 3.78728L10.8547 3.7545L10.8609 3.74492L10.8228 3.65652L10.7917 3.60495V3.55891L10.7879 3.55118L10.7284 3.54602L10.695 3.53497L10.6908 3.52429L10.6888 3.41599L10.6792 3.40605L10.6197 3.39426L10.6167 3.38174L10.5948 3.37474L10.5963 3.27161L10.6055 3.25982L10.6777 3.24693L10.6988 3.2344L10.7146 3.21672L10.7299 3.18136L10.8198 3.11985L10.8624 3.07012L10.8536 3.05207L10.8321 3.03145L10.8259 2.99019L10.8578 2.98798L10.8939 3.00161L10.9039 2.97914L10.9837 2.92868L11.0094 2.93568L11.0478 2.97693L11.0839 2.98209L11.107 2.96846L11.1496 2.925L11.1814 2.9342L11.1899 2.94305L11.2064 2.94415L11.2287 2.95778L11.2851 3.01008L11.3008 3.01229L11.34 2.96957L11.3592 2.97435L11.3734 2.96772L11.4141 2.96662L11.4241 2.97178L11.4606 2.95336L11.4725 2.95373L11.5228 3.0134L11.5581 3.02371L11.5969 3.00272L11.6545 2.95962L11.656 2.88927L11.6345 2.82775L11.6107 2.82333L11.5765 2.80786L11.497 2.81155L11.4026 2.77545L11.373 2.74746L11.3477 2.69736L11.3043 2.66716L11.2851 2.67305L11.2801 2.70215L11.2705 2.70915L11.193 2.71246L11.1523 2.70068L11.1292 2.6701L11.1016 2.64911L11.0693 2.64137L11.0325 2.64506L10.9879 2.64174L10.9434 2.61448L10.9326 2.58944L10.9246 2.50656L10.9373 2.48851L10.9826 2.44542L10.9902 2.38169L10.9991 2.36659L11.0317 2.3618L11.0517 2.37911L11.0885 2.37875L11.0974 2.3909L11.1016 2.41079L11.1192 2.42L11.1384 2.42111L11.1657 2.41705L11.1937 2.40343L11.2129 2.38317L11.2386 2.37027L11.2456 2.34081L11.2214 2.28077L11.1818 2.26088L11.1162 2.26382L11.102 2.28335L11.072 2.29955L11.0282 2.29182L10.9242 2.28777L10.8985 2.25793L10.8843 2.25167L10.8612 2.25056L10.8328 2.2362L10.7445 2.23067L10.7399 2.22331L10.7407 2.18831L10.7468 2.17027L10.8067 2.16695L10.8148 2.17726L10.8213 2.20121L10.829 2.20563L10.8374 2.20121L10.8424 2.13233L10.8501 2.12459L10.8896 2.11096L10.9207 2.05682L10.9576 2.03066L10.9699 2.01372V1.99052L10.9614 1.97062L10.9161 1.93526L10.9088 1.91206L10.8797 1.90359L10.8513 1.91059L10.829 1.89364L10.7998 1.89217L10.7948 1.87301L10.8067 1.85091L10.8347 1.82329L10.882 1.82439L10.9246 1.81445L10.9465 1.86012L10.9672 1.87007L10.9983 1.86786L11.0018 1.85975L10.9952 1.83618L11.0137 1.79272L10.9899 1.75183L10.9983 1.72641L11.0306 1.694L11.0355 1.67853L11.054 1.6708L11.0832 1.67227L11.1012 1.65938L11.1507 1.66564L11.1611 1.68037L11.1764 1.74409L11.1937 1.75883L11.2206 1.76214L11.2406 1.77319L11.2521 1.81334L11.264 1.82329L11.2847 1.77172L11.2978 1.7533L11.3304 1.7452L11.3569 1.73194L11.3661 1.75588L11.3972 1.78682L11.4122 1.77577L11.4199 1.75551L11.4183 1.74004L11.4437 1.72826L11.4479 1.73525L11.4364 1.74999L11.441 1.75625L11.4629 1.74594L11.4836 1.75772L11.4598 1.79787L11.4586 1.80892L11.5013 1.81997L11.5147 1.8336L11.5389 1.83323L11.5727 1.83029L11.5838 1.82218V1.8034L11.5615 1.7592L11.5546 1.73304L11.5658 1.71942L11.5823 1.71978L11.6068 1.70026H11.6291L11.6548 1.71978L11.7055 1.72789L11.7197 1.71905L11.7297 1.72384L11.8023 1.72568L11.8307 1.71131L11.8522 1.70984L11.8656 1.69953L11.8783 1.701L11.9167 1.73599L11.9032 1.75294L11.8602 1.77319L11.8587 1.78351L11.8814 1.84465L11.8906 1.85754L11.9236 1.8708L11.9482 1.88848L11.9624 1.88922L11.9712 1.87265L11.9612 1.84834L11.9681 1.83176L11.9827 1.81592L11.9946 1.78609L12.025 1.7743L12.0349 1.75957L12.0361 1.74852L12.0699 1.72384L12.0814 1.72126L12.0975 1.69326L12.1244 1.68369L12.1336 1.67264L12.1478 1.66932L12.1616 1.6498L12.1566 1.63543L12.1601 1.62696L12.1862 1.63138L12.2446 1.62512L12.2753 1.63654H12.311L12.3432 1.64575L12.3874 1.63691L12.407 1.62696L12.4177 1.6137L12.4235 1.57981L12.4116 1.5544L12.4166 1.53967L12.4227 1.53377L12.4488 1.52898L12.4577 1.52051L12.478 1.51941L12.4822 1.52862L12.4922 1.53304L12.5264 1.52051L12.6039 1.5323L12.6174 1.5253L12.6577 1.51867L12.6642 1.50909L12.6819 1.51793L12.6896 1.50467L12.7015 1.5102L12.7748 1.48184L12.7832 1.473L12.8139 1.4671L12.8458 1.44942L12.8953 1.43837L12.9015 1.4288L12.9261 1.43285L12.9529 1.41959L12.9733 1.4369L12.9844 1.42953L12.9952 1.43064L13.0005 1.42474L13.0128 1.43285L13.0236 1.4288L13.0266 1.40669L13.0393 1.38901L13.0455 1.39675L13.0562 1.39417L13.0497 1.41701L13.052 1.4229L13.065 1.42511L13.0869 1.40706L13.1011 1.38091L13.1199 1.38865L13.133 1.38349L13.148 1.39417L13.1679 1.39049L13.1798 1.39343L13.2048 1.37354L13.2355 1.37686L13.2601 1.36507L13.2881 1.36618L13.305 1.36028L13.3657 1.36728L13.3829 1.35881L13.391 1.34481L13.3902 1.33192L13.3964 1.32566L13.4098 1.32308L13.4202 1.33118L13.4359 1.33376L13.4501 1.32382L13.4647 1.32234L13.4866 1.31093L13.4897 1.29767L13.5054 1.28551L13.5246 1.28293L13.5338 1.28919L13.5953 1.27446L13.6006 1.28256L13.5968 1.28809V1.32897L13.6045 1.33155L13.6452 1.32087L13.6809 1.30172L13.727 1.26783L13.7577 1.2542L13.7703 1.25604L13.8064 1.28146L13.8368 1.30945L13.8702 1.35365L13.9527 1.35144L13.9654 1.3356L13.9658 1.31977L13.9454 1.24205L13.9281 1.217L13.9431 1.17096L13.9366 1.12749L13.9462 1.11571L14.0022 1.07813L14.0533 1.05824H14.076L14.1297 1.07261L14.1458 1.06819L14.1477 1.04867L14.1216 1.01441L14.1243 0.994153L14.1355 0.980892L14.1604 0.971684L14.2234 0.988259L14.2579 0.987522L14.2867 0.999309L14.3305 1.02804L14.3497 1.03025L14.3658 1.02215L14.385 0.998573L14.3965 0.968369L14.3988 0.9459L14.4127 0.919379L14.4584 0.898752L14.4914 0.895806L14.5025 0.898384L14.5106 0.910908L14.4956 0.96358L14.4964 0.996363L14.5194 1.01478Z" fill="white"/>
<path d="M9.36925 11.1103L9.39536 11.0919L9.40765 11.065L9.42147 11.0484L9.44757 11.0617L9.4614 11.0768L9.48558 11.0852H9.52052L9.53626 11.1136L9.52743 11.1471L9.53434 11.2038L9.53089 11.2407L9.51169 11.2639L9.53434 11.3088L9.55009 11.3674L9.57811 11.3839L9.60077 11.4057L9.61305 11.4374L9.6142 11.4657L9.24409 11.2086L9.24793 11.1722L9.26367 11.1622V11.1272L9.2725 11.1106H9.29669L9.31742 11.1206L9.34852 11.1217L9.36925 11.1103ZM9.97626 11.0838H9.89678L9.90216 10.9545L9.96551 10.9394L10.0899 10.9316L10.1851 10.9419L10.2035 10.9799L10.275 10.9924L10.3517 10.995L10.3625 11.0127H10.164L10.058 11.0686L9.97626 11.0838ZM11.5469 8.95695L11.6084 9.06929L11.7013 9.05567L11.9071 9.30687L11.8748 9.37833L12.0895 9.41075L12.1221 9.45568L12.1785 9.43837L11.9731 9.59271L12.2814 9.53745L12.3701 9.61849L12.4826 9.69105L12.582 9.68369L12.8032 9.80229L12.8754 9.75956L12.908 9.79124L13.2824 9.93195L13.3591 9.93379L13.7342 10.1275L13.8897 10.1404L14.0257 10.2878L14.1635 10.3611L15.1379 10.6149L15.4336 10.599L15.4696 10.6093L15.4816 10.7088L15.4712 10.7939L15.5891 10.8812L15.6117 10.9508L15.5902 10.9965L15.5449 11.058L15.5215 11.1335L15.5146 11.2392L15.467 11.4064L15.6086 11.5191L15.7273 11.5678L15.7319 12.2713L15.7173 12.2912L15.7085 12.3531L15.7879 12.4278L15.8332 12.4138L15.9189 12.4599L15.9208 12.493L16.0064 12.5928L16.211 12.7332L16.1584 12.7833L16.1296 12.7608L16.0843 12.7785L16.0459 12.8175L16.0617 12.8389L16.0836 12.8934L16.0747 12.9995L16.0429 13.0142L15.9692 12.9527L15.9695 13.1082L15.8985 13.1778L15.9047 13.2106L15.8893 13.2912L15.8137 13.3118L15.8359 13.4065L15.8678 13.3877L15.8559 13.3262L15.897 13.3037L15.8889 13.3483L15.9323 13.3465L15.9192 13.3988L15.948 13.4651L16.001 13.4514L15.9979 13.4839L15.925 13.5288L15.6777 13.6474L15.4785 13.7181L15.2919 13.8529L15.0819 14.0563L14.9771 13.9944L14.6757 14.2946L14.6108 14.2795L14.605 13.6982L14.4023 13.7896L14.2952 13.4588L14.271 13.3649L14.0955 13.2153L14.0049 13.128L13.9128 12.9328L13.8967 12.9151L13.8709 12.9011L13.8264 12.9019L13.7934 12.91L13.4405 13.071L13.4236 13.0739L12.9752 13.0466L12.6846 13.0183L12.5797 13.0021L12.2503 13.0577L11.5723 13.1855L11.5589 13.1844L11.5327 13.1605L11.0121 12.5439L10.9142 12.4492L10.8785 12.3402L10.5291 12.0982L10.5664 12.0665L10.589 12.0547L10.6151 11.9829L10.6255 11.911L10.6082 11.8344L10.5767 11.7361L10.5472 11.7011L10.5019 11.6978L10.4861 11.651L10.4531 11.6241L10.4339 11.5622V11.5188L10.4531 11.4771L10.4512 11.342L10.4339 11.2819L10.399 11.2569L10.4078 11.22L10.4358 11.1582L10.4393 11.0981L10.4113 10.9913L10.3748 10.953L10.3694 10.8812L10.4078 10.8561L10.4285 10.7511L10.4443 10.7312L10.4531 10.6955L10.5591 10.6705L10.5852 10.6355L10.5975 10.5905L10.667 10.5287L10.7453 10.5154L10.799 10.4686L10.8685 10.4436L10.9415 10.402L10.9883 10.3253L11.0006 10.2034L10.9983 10.1415L10.9695 10.1375L10.9284 10.1692L10.8136 10.1496L10.7111 10.1537L10.6374 10.0671L10.6416 9.94521L10.6539 9.89401L10.6005 9.87817L10.5637 9.84686L10.4612 9.85091L10.4569 9.88627L10.498 9.9058L10.5349 9.90985L10.584 9.94521V9.99236L10.5552 10.0082L10.5264 10.0399L10.4854 10.0594L10.4362 10.0358L10.3786 10.02V10.1342L10.351 10.153L10.3406 10.1183L10.3456 10.02L10.3253 9.98057L10.2892 9.94594H10.2377L10.0684 10.0542L10.0377 10.0936L10.0331 10.1673L10.0553 10.1938L10.0815 10.2491L10.0987 10.2741L10.151 10.2959H10.1928L10.2277 10.2793L10.2711 10.2675L10.3633 10.2609L10.384 10.2992L10.417 10.3242L10.4623 10.3393L10.5199 10.301L10.5479 10.2675L10.581 10.2609L10.5879 10.3261L10.647 10.4211L10.6455 10.4944L10.6297 10.5478L10.5499 10.5961H10.508L10.409 10.6145L10.3621 10.5994L10.3187 10.5544L10.2788 10.5327L10.1605 10.5095L10.1014 10.5029L10.0684 10.5213L10.0004 10.5813L9.94823 10.5846L9.92404 10.5714L9.93786 10.5014L9.92212 10.4764L9.91675 10.4314L9.91867 10.3762L9.8891 10.3412L9.8438 10.3327H9.71864L9.69445 10.3379L9.69637 10.378L9.77815 10.5032L9.79734 10.5449L9.78352 10.5931L9.8008 10.7198L9.79197 10.7699L9.77124 10.8034L9.74705 10.8152L9.72094 10.802L9.68946 10.8904L9.66181 10.9121L9.62879 10.9003L9.58694 10.9036L9.54509 10.9187H9.50517L9.49979 10.8918L9.50171 10.8569L9.51054 10.8167L9.55393 10.7533L9.58541 10.7198L9.59923 10.6896L9.56775 10.6679L9.53127 10.6495L9.49825 10.6679L9.45833 10.7062L9.41148 10.7095L9.36618 10.7029L9.34545 10.6863L9.33047 10.6808L9.53396 10.4406L9.6979 10.2045L9.78352 10.1143L9.84649 10.02L10.1471 9.7522L10.3759 9.73415L10.3974 9.50725L10.71 9.53193L10.9664 8.87297L11.4199 8.77241L11.5469 8.95695Z" fill="white"/>
<path d="M3.055 11.8713L3.05807 11.8753L3.0765 11.8646L3.08763 11.8694L3.05039 11.8923L3.03772 11.9074L3.04118 11.921L3.03542 11.9225L3.02927 11.9063L3.03772 11.8772L3.03081 11.8355L3.03465 11.8311L3.05039 11.8514L3.055 11.8713ZM3.10606 11.7486L3.11681 11.7516L3.12756 11.7457L3.13755 11.7368L3.14369 11.7173L3.15022 11.7431L3.1602 11.7353L3.16327 11.7416L3.15789 11.7873L3.16212 11.8024L3.1959 11.819L3.15636 11.8109L3.15098 11.8208L3.12718 11.826L3.12641 11.8179L3.14369 11.8035L3.12334 11.7961L3.13486 11.777L3.13255 11.7655L3.10721 11.7641L3.07573 11.728L3.07458 11.7199L3.09378 11.7029L3.09685 11.7074L3.08533 11.7221L3.10606 11.7486ZM2.64457 11.6259L2.67221 11.6326L2.68719 11.6458L2.64802 11.651L2.6296 11.6746L2.62768 11.7026L2.63843 11.7283L2.64227 11.76L2.65148 11.7737L2.66031 11.7748L2.66492 11.7637L2.66837 11.7674L2.65916 11.795L2.67759 11.8204L2.72212 11.8418L2.76205 11.8271L2.7682 11.8285L2.7705 11.8341L2.75591 11.8643L2.7513 11.865L2.74055 11.8528L2.6868 11.8455L2.66261 11.8319L2.63343 11.7873L2.60848 11.7066L2.62499 11.6576L2.62614 11.6337L2.64457 11.6259ZM2.84422 11.6112L2.87416 11.616L2.88415 11.6418L2.87839 11.669L2.88491 11.6889L2.86533 11.7221L2.86457 11.7401L2.85727 11.7549L2.84038 11.7663L2.82924 11.7674L2.81389 11.7836L2.80889 11.7946L2.81504 11.8101L2.80966 11.8142L2.80083 11.8072L2.79584 11.7865L2.79968 11.7766L2.7943 11.7549L2.80467 11.7335L2.80352 11.7166L2.7993 11.7066L2.78163 11.6923L2.78509 11.6724L2.77357 11.6499L2.79008 11.6307L2.81657 11.6326L2.84422 11.6112ZM4.57079 11.1563L4.57616 11.1571L4.58192 11.1467L4.58998 11.1445L4.59882 11.1508L4.61916 11.2031L4.61993 11.2256L4.62915 11.2462L4.62492 11.2602L4.62915 11.2823L4.62761 11.2871L4.60189 11.2893L4.61225 11.304L4.61033 11.3081L4.57194 11.2933L4.56388 11.2709L4.5443 11.2425L4.51857 11.2186L4.50821 11.2013L4.51627 11.1898L4.55159 11.1633L4.55351 11.1589L4.54122 11.1478L4.54007 11.1383L4.55889 11.1456L4.57079 11.1563ZM4.69941 10.893L4.87026 10.9335L4.97085 10.9386L4.99466 10.8815L5.10984 10.8963L5.15975 10.8646L5.21312 10.8576L5.30334 10.8204L5.37898 10.7766L5.42735 10.732L5.34903 10.6878L5.51873 10.5666L5.55905 10.4926L5.54868 10.4469L5.66386 10.4605L5.67883 10.4369L5.73182 10.4252L5.77751 10.4274L5.82588 10.4163L5.89499 10.3898L6.00787 10.3872L6.15069 10.3338L6.44556 10.3043L6.52811 10.3154L6.70395 10.1482L6.79418 10.2708L6.84255 10.2996L6.86444 10.2929L6.87595 10.2745L6.89746 10.2635L6.93393 10.2682L6.95965 10.3423L6.94775 10.399L6.96004 10.4318L7.01571 10.4473L7.0541 10.469L7.09211 10.4439L7.12513 10.4579L7.14471 10.5154L7.2238 10.5382L7.27525 10.5128L7.31019 10.5441L7.36855 10.5401L7.43535 10.5784L7.50293 10.757L7.60966 11.5147L7.08136 11.6812L7.08328 15.2773L6.98423 15.2736L6.94046 15.3156L6.91896 15.2998L6.90821 15.2976L6.83603 15.3105L6.808 15.3241L6.80032 15.3444L6.79149 15.3513L6.78074 15.3432L6.77498 15.3263L6.76154 15.3101L6.75386 15.3134L6.75348 15.3333L6.73927 15.3429L6.72392 15.3392L6.68629 15.3178L6.64252 15.2795L6.59261 15.2184L6.54999 15.1852L6.5162 15.141L6.44748 15.0324L6.39181 14.9064L6.35687 14.857L6.3154 14.818L6.30389 14.8003L6.30082 14.7808L6.30773 14.7149L6.27394 14.6681L6.21673 14.6069L5.93185 14.4136L5.80784 14.3351L5.77136 14.3141L5.73489 14.3005L5.55943 14.3056L5.28568 14.3476L5.16205 14.38L4.94705 14.471L4.87333 14.4953L4.81881 14.5296L4.57232 14.7417L4.43295 14.8526L4.43411 14.8335L4.46597 14.7613L4.4702 14.7163L4.46904 14.6854L4.45906 14.6486L4.42873 14.6095L4.43449 14.5679L4.41644 14.5495L4.42758 14.4743L4.4414 14.4478L4.49438 14.3859L4.52779 14.3303L4.59498 14.1675L4.6111 14.0909L4.60265 14.0471L4.58423 14.0128L4.52126 13.9439L4.51704 13.9314L4.53124 13.9108L4.52817 13.9292L4.537 13.948L4.57655 13.9782L4.60457 14.0143L4.62761 14.0743L4.64642 14.0548L4.65602 14.0297L4.66025 13.9785L4.65334 13.9284L4.63836 13.9167L4.60534 13.9163L4.58922 13.9027L4.56349 13.913L4.57463 13.8953L4.5585 13.8533L4.45561 13.8242L4.42489 13.8194L4.36538 13.8279L4.33889 13.8463L4.32315 13.8699L4.31854 13.8695L4.27746 13.8051L4.25557 13.7903L4.23983 13.7866L4.21334 13.7877L4.20106 13.7833L4.15844 13.7896L4.0997 13.8065L4.05439 13.8283L4.03903 13.8279L4.0256 13.8157L3.97722 13.7406L3.97184 13.7218L3.9442 13.6806L3.93191 13.6371L3.84591 13.559L3.85513 13.5494L3.85705 13.5317L3.84169 13.4857L3.80406 13.4824L3.73265 13.4964L3.72344 13.506L3.68159 13.5041L3.58061 13.52L3.55988 13.5141L3.55681 13.4986L3.56218 13.4559L3.59213 13.3354L3.59482 13.257L3.58906 13.2032L3.57677 13.1826L3.57178 13.1483L3.55681 13.1129L3.52225 13.0816L3.51649 13.0643L3.49269 13.0496L3.48386 13.0466L3.4781 13.0533L3.47388 13.05L3.44508 13.0032L3.40822 12.9207L3.37559 12.8824L3.34756 12.7372L3.31147 12.6864L3.30187 12.6776L3.27154 12.6706L3.25695 12.6536L3.26271 12.5881L3.25196 12.5413L3.22816 12.4838L3.18976 12.4477L3.10952 12.4131L3.05308 12.3995L2.91409 12.3892L2.86802 12.3707L2.81465 12.3354L2.79238 12.3011L2.78893 12.2871L2.78701 12.1438L2.77703 12.1015L2.7778 12.0978L2.79699 12.128L2.79776 12.142L2.80697 12.1402L2.84345 12.0385L2.87186 12.0429L2.88645 12.0396L2.8949 12.0477L2.91793 12.0459L2.95134 12.0588L2.99318 12.0554L3.02774 12.061L3.05231 12.0488L3.07957 12.0698L3.15713 12.0761L3.19168 12.0702L3.2055 12.0481L3.21549 12.0459L3.23123 12.0562L3.28383 12.0709L3.30494 12.1022L3.31224 12.1033L3.31992 12.1195L3.33719 12.1273L3.35716 12.1236L3.34794 12.1405L3.35677 12.1611L3.42358 12.2053L3.50306 12.2068L3.52648 12.1888L3.54337 12.1659L3.56065 12.1567L3.56679 12.1402L3.63129 12.1239L3.64012 12.1236L3.64358 12.1306L3.63321 12.1464L3.63436 12.1534L3.64242 12.1505L3.66316 12.1726L3.67967 12.1689L3.68773 12.1615L3.6885 12.1497L3.72843 12.1667L3.753 12.1582L3.75837 12.1501L3.75108 12.1339L3.72267 12.1122L3.67851 12.0934L3.5856 12.0941L3.55642 12.1018L3.55719 12.0893L3.56986 12.0772L3.56717 12.0635L3.54798 12.0761L3.54452 12.0724L3.54606 12.0381L3.52456 11.9961L3.48386 11.9394L3.45929 11.9309L3.41936 11.8948L3.38288 11.8768L3.38173 11.8705L3.35908 11.8521L3.34526 11.847L3.34334 11.8595L3.32644 11.8679L3.29611 11.865L3.2654 11.8698L3.23891 11.8551L3.23699 11.8451L3.26501 11.8543L3.25733 11.8433L3.26156 11.8252L3.27231 11.8101L3.25964 11.8009L3.25925 11.7843L3.31992 11.7037L3.3299 11.6974L3.36177 11.6834L3.37328 11.6823L3.39286 11.6911L3.40054 11.6882L3.46159 11.6278L3.48731 11.6149L3.50075 11.616L3.52648 11.63H3.54068L3.54606 11.6016L3.53723 11.5224L3.5449 11.486L3.55028 11.4738L3.56103 11.4657L3.56986 11.4293L3.59443 11.3895L3.61248 11.3762L3.62246 11.3571L3.63782 11.3534L3.66354 11.3184L3.67544 11.311L3.6908 11.3316L3.69963 11.3357L3.76298 11.3324L3.78794 11.3261L3.79638 11.3136L3.82288 11.3066L3.87471 11.2764L3.88162 11.2602L3.90734 11.2289L3.92232 11.23L3.92731 11.2396L3.94266 11.248L3.95226 11.241L3.97607 11.2565L4.01715 11.2609L4.04479 11.2808L4.059 11.2834L4.09739 11.2797L4.13771 11.2642L4.16612 11.2635L4.20413 11.2753L4.2598 11.2676L4.30933 11.2683L4.33159 11.2642L4.365 11.2491L4.38688 11.2499L4.43103 11.2388L4.46405 11.251L4.52971 11.2539L4.53969 11.2639L4.55198 11.2919L4.58192 11.3136L4.61609 11.3173L4.62684 11.3154L4.62646 11.3059L4.67407 11.328L4.70094 11.3294L4.70133 11.3195L4.65026 11.297L4.66063 11.2933L4.6637 11.283L4.65487 11.2698L4.65372 11.251L4.63836 11.2322L4.63414 11.2178L4.63375 11.1909L4.64067 11.1814L4.68021 11.1976L4.71668 11.2241L4.75546 11.23L4.78656 11.2653L4.82265 11.2897L4.82764 11.2838L4.79347 11.2539L4.757 11.2001L4.74586 11.1957L4.71784 11.1987L4.70286 11.1762L4.65602 11.1548L4.66063 11.1431L4.67791 11.1331L4.67061 11.1217L4.68367 11.1136L4.71208 11.1025L4.73435 11.0996L4.76084 11.1055L4.76506 11.1011L4.74894 11.0723V11.0558L4.73588 11.0594L4.72014 11.0852L4.68482 11.1011L4.66831 11.114L4.66255 11.1106L4.66677 11.0989L4.65833 11.0933L4.66178 11.0749L4.63875 11.072L4.65833 11.0668L4.64489 11.0602L4.6445 11.0539L4.66869 11.0337L4.68443 11.0307L4.6829 11.0156L4.70939 11.013L4.71784 11.0281L4.74433 11.0436L4.75047 11.0421L4.70862 10.9876L4.67215 10.96L4.69058 10.9552L4.70593 10.9408L4.70401 10.932L4.69096 10.9316L4.69134 10.9224L4.71169 10.9176L4.71438 10.9235L4.72321 10.9198L4.72398 10.925L4.73127 10.9261L4.74394 10.9202L4.75162 10.9095L4.73243 10.9132L4.69941 10.893Z" fill="white"/>
<path d="M22.5648 1.31756L22.5986 1.31608L22.6147 1.32455L22.6232 1.33781L22.6301 1.39086L22.6063 1.42585L22.6117 1.46637L22.6086 1.4822L22.5779 1.51572L22.5453 1.53304L22.5387 1.57282L22.5157 1.58129L22.4685 1.61444L22.4543 1.60781L22.4343 1.57245L22.409 1.58203L22.3917 1.58018L22.3606 1.5625L22.3214 1.55808L22.3057 1.55845L22.2988 1.56324L22.2961 1.5835L22.3022 1.60781L22.3517 1.6719L22.3583 1.72273L22.3886 1.77688L22.5487 1.92606L23.1507 2.39348L23.3657 2.59128L23.4049 2.63548L23.5397 2.84949L23.6571 3.0204L23.7965 3.26313L23.8019 3.25798L23.8864 3.41489L23.8802 3.41894L24.1217 3.82854L24.1659 3.92725L24.2319 4.02523L24.2411 4.04991L24.2711 4.08932L24.3217 4.18583L24.3283 4.18214L24.3356 4.19577L24.3298 4.20019L24.3889 4.31954L24.4035 4.33353L24.4027 4.34348L24.4772 4.49266L24.4212 4.49892L24.4012 4.61126L24.2868 4.63926L24.3068 4.70187L24.2104 4.79249L24.1897 4.76854L24.0403 4.78954L24.0438 4.85805L24.0822 4.85179L24.0706 4.89783L24.0776 4.95235L24.0388 4.93945L23.886 5.03264L23.7915 5.06101L23.7746 5.0238L23.7289 5.04333L23.7193 5.08458L23.6387 5.12583L23.6214 5.11257L23.5577 5.17188L23.6472 5.29601L23.6675 5.41019L23.7243 5.42677L23.7589 5.47686L23.8195 5.52254L23.8695 5.54722L24.0238 5.64556L23.9969 5.8964L24.0676 5.91556L24.0891 6.06142L24.038 6.11225L23.9098 6.33583L23.8069 6.38114L23.6859 6.35241L23.3653 6.22423L23.3212 6.14982L23.2717 6.17782L23.1857 6.11888L23.2452 6.04042L23.201 5.88977L23.0782 5.81426L22.9223 5.80837L22.7902 5.67429L22.6462 5.71002L22.5694 5.78185L22.523 5.95939L22.5276 6.06952L22.4996 6.11667L22.4159 6.06879L22.3318 6.07763L22.273 6.11004L22.2558 6.09752L22.2212 6.18666L22.1859 6.19476L22.0891 6.14025L21.8269 6.20949L21.7939 6.17561L21.7582 6.18887L21.7478 6.22496L21.7213 6.23933L21.5025 6.23233L21.4664 6.27874L21.312 6.38667L21.2372 6.40803L21.223 6.37746L21.175 6.37967L21.1493 6.29532L21.1969 6.26474L21.1957 6.2408L21.2975 6.19955L21.3051 6.21023L21.3454 6.19771L21.3343 6.17708L21.3596 6.16677L21.3474 6.1222L21.2614 6.08941L21.241 6.03379L21.2671 6.01906L21.2095 5.92403L21.1665 5.92219L21.0621 5.81537L21.0099 5.94097L20.9604 5.81905L21.0034 5.78701L20.9623 5.73765L20.8402 5.71481L20.8302 5.68461L20.7699 5.73323L20.6624 5.7417L20.5522 5.76933L20.4424 5.6533L20.4977 5.6032L20.4655 5.55532L20.4858 5.5148L20.5257 5.50596L20.5215 5.39435L20.538 5.30927L20.571 5.21203L20.5384 5.16377L20.5353 5.08053L20.2781 4.99102L20.3587 4.89967L20.3699 4.8179L20.5361 4.71366L20.6121 4.73429L20.6413 4.6993L20.6812 4.69524L20.6997 4.66835L20.6267 4.62821L20.5388 4.62047L20.5008 4.53612L20.3641 4.60058L20.3679 4.38363L20.3914 4.35711L20.4962 4.27791L20.5419 4.26944L20.5261 4.2374L20.5088 3.50219L20.4697 3.49666L20.4674 3.47603L20.4632 3.42962L20.3238 3.41968L20.2858 3.32317L20.3011 3.27934L20.3357 3.32501L20.3902 3.33275L20.4221 3.39831L20.4589 3.38321L20.4486 3.26976L20.4962 3.25135L20.4889 3.1891L20.5269 3.16957L20.485 3.06091L20.4113 3.08559L20.3772 3.07528L20.3322 3.19168L20.2313 3.19315L20.2124 3.09849L20.2654 3.03881L20.2409 2.98909L20.1583 3.04471L20.1403 3.02666L20.1848 2.99167L20.2132 2.92352L20.2558 2.86238L20.2508 2.82002L20.2938 2.80013L20.2915 2.77398L20.3299 2.75409L20.295 2.70178L20.2562 2.72683L20.2443 2.6992L20.2017 2.71431L20.199 2.74009L20.0923 2.8296L20.0738 2.72315L20.0911 2.61006L20.1541 2.63953L20.1825 2.61154L20.1211 2.51835L20.0823 2.4351L20.179 2.34412L20.1917 2.29034L20.2301 2.29955L20.2489 2.22147L20.3011 2.22736L20.3672 2.26714L20.419 2.19237L20.5465 2.21999L20.5388 2.30324L20.6041 2.30913L20.6179 2.24688L20.6716 2.25793L20.664 2.28261L20.6908 2.29292L20.6904 2.34044L20.7039 2.34817L20.7062 2.35665L20.7012 2.38427L20.7922 2.41705L20.8525 2.27451L20.8202 2.25646L20.8425 2.15001L20.9688 2.1699L21.0022 2.06197L21.0444 2.0686L21.0659 2.05829L21.0782 2.03766L21.0894 1.99052L21.0959 1.98536L21.1212 1.9942L21.2222 1.99346L21.2326 1.99936L21.2487 2.02845L21.2656 2.02072L21.3543 1.95331L21.398 1.91353L21.4314 1.89917L21.5221 1.83176L21.5743 1.80487L21.5958 1.77982L21.5954 1.75478L21.532 1.66785L21.6311 1.61886L21.6837 1.64022L21.6921 1.63875L22.1502 1.43395L22.1533 1.42327L22.1341 1.40043V1.39343L22.1552 1.33376L22.1617 1.33192L22.2396 1.36544L22.3203 1.3717L22.3564 1.36986L22.3967 1.34444L22.4665 1.34592L22.5088 1.3043L22.5287 1.25899L22.5683 1.25567L22.6205 1.22547L22.6612 1.20926L22.6746 1.21111L22.6796 1.24278L22.6766 1.24831L22.5637 1.30724L22.5648 1.31756Z" fill="white"/>
<path d="M16.886 0.0732999L16.9048 0.116396L16.9144 0.121184L16.9628 0.109029L17.0127 0.0869285L17.0446 0.0825084L17.0695 0.0865601L17.131 0.113817L17.1525 0.105346L17.2081 0.10203L17.2642 0.111607L17.341 0.148441L17.3859 0.162438L17.4085 0.176804L17.425 0.196694L17.4515 0.271099L17.4681 0.286201L17.5061 0.300198L17.5498 0.305723L17.6109 0.366868L17.6235 0.372393L17.6738 0.373866L17.6865 0.367604L17.7249 0.325982L17.8067 0.292094L17.8178 0.279203L17.8439 0.208481L17.8624 0.189696L17.8915 0.190064L17.9399 0.216953L17.9795 0.21769L17.994 0.211796L18.0171 0.186749L18.0344 0.179382L18.1088 0.165385L18.1227 0.167964L18.13 0.218795L18.1476 0.25305L18.1745 0.30425L18.2052 0.331139L18.2152 0.37534L18.2417 0.401123L18.2674 0.449008L18.2728 0.479948L18.2666 0.564667L18.2716 0.609236L18.2555 0.646807L18.2528 0.678116L18.2559 0.690271L18.2912 0.738524L18.2939 0.798563L18.3 0.820296L18.325 0.867075L18.3584 0.901331L18.4325 0.919748L18.4778 0.954003L18.4813 0.963949L18.482 1.01331L18.4237 1.03062L18.4102 1.04093L18.4045 1.05272L18.3968 1.10834L18.401 1.15991L18.4114 1.22694L18.4294 1.28698L18.4229 1.33634L18.4075 1.37391L18.401 1.37907L18.3891 1.37833L18.3242 1.36618L18.2785 1.34297L18.2724 1.34408L18.2678 1.35292L18.2682 1.3997L18.2736 1.41075L18.287 1.42106L18.3258 1.43027L18.3334 1.44242L18.3381 1.46968L18.3108 1.50504L18.3081 1.51572L18.3166 1.52825L18.3388 1.54114L18.3503 1.5544L18.3611 1.5776L18.3657 1.61849L18.3772 1.62807L18.4045 1.6358L18.4133 1.63286L18.4694 1.58608L18.4866 1.55108L18.52 1.54445L18.6298 1.5776L18.6371 1.59381L18.6322 1.62217L18.6398 1.63543L18.692 1.62586L18.7446 1.6428L18.7619 1.63028L18.7934 1.62181L18.8126 1.59934L18.8118 1.5765L18.7969 1.53414L18.8103 1.48994L18.828 1.46526L18.9251 1.47705L19.0188 1.49694L19.0453 1.51793L19.0472 1.54188L19.0737 1.55624L19.0714 1.57945L19.1236 1.60781L19.1294 1.60597L19.1413 1.58755L19.1462 1.54261L19.1217 1.51757L19.0637 1.4881L19.0744 1.45126L19.0963 1.4159L19.0775 1.3868L19.0426 1.36065L19.0299 1.33303L19.0334 1.3275L19.0495 1.32382L19.104 1.32455L19.1332 1.33082L19.1973 1.37796L19.2123 1.42216L19.2069 1.45605L19.2415 1.47705L19.2238 1.52972L19.2311 1.53782L19.2975 1.57945L19.3682 1.59823L19.3705 1.63286L19.3248 1.62328L19.3125 1.63838L19.2764 1.64022L19.2718 1.66011L19.286 1.68037L19.2852 1.694L19.3133 1.715L19.314 1.72089L19.2825 1.82439L19.3213 1.86454L19.3593 1.87707L19.3689 1.87228L19.3993 1.80192L19.4142 1.78019L19.5394 1.82881L19.5313 1.77651L19.4968 1.71131L19.4607 1.70431L19.4288 1.70616L19.415 1.71573L19.3893 1.71094L19.4069 1.6347L19.44 1.61886L19.4492 1.60486L19.5843 1.61628L19.6093 1.62033L19.6281 1.63838L19.7321 1.64833L19.7298 1.70247L19.7782 1.70984L19.7982 1.77246L19.8093 1.77909L19.8961 1.79677L19.9548 1.81555L19.9617 1.82439L20.0454 1.82145L20.0512 1.81224L20.0462 1.78756L20.0516 1.77982L20.0754 1.7883L20.1057 1.81297L20.1391 1.82881L20.1453 1.82587L20.1468 1.81629L20.1272 1.77283L20.1276 1.7603L20.1852 1.74188L20.2167 1.71647L20.2243 1.69953L20.214 1.68074L20.2182 1.67706L20.2624 1.68148L20.2639 1.69474L20.3054 1.70174L20.2858 1.82808L20.2612 1.93453L20.0927 1.91022L20.0677 1.95479L20.0861 1.99346L20.0608 2.00488L20.0059 2.01556L20.0147 2.05055L19.9917 2.14485L19.9395 2.15295L19.9402 2.19089L19.9564 2.19384L19.9571 2.19826L19.9302 2.28335L20.0093 2.3106L20.0174 2.3246L20.0447 2.3327L20.045 2.35333L20.0289 2.39827L20.042 2.41337L20.0823 2.4351L20.1211 2.51835L20.1825 2.61154L20.1541 2.63953L20.0911 2.61006L20.0738 2.72315L20.0923 2.8296L20.199 2.74009L20.2017 2.71431L20.2443 2.6992L20.2562 2.72683L20.295 2.70178L20.3299 2.75409L20.2915 2.77398L20.2938 2.80013L20.2508 2.82002L20.2558 2.86238L20.2132 2.92352L20.1848 2.99167L20.1403 3.02666L20.1583 3.04471L20.2409 2.98909L20.2654 3.03881L20.2124 3.09849L20.2313 3.19315L20.3322 3.19168L20.3772 3.07528L20.4113 3.08559L20.485 3.06091L20.5269 3.16957L20.4889 3.1891L20.4962 3.25135L20.4486 3.26976L20.4589 3.38321L20.4221 3.39831L20.3902 3.33275L20.3357 3.32501L20.3011 3.27934L20.2858 3.32317L20.3238 3.41968L20.4632 3.42962L20.4674 3.47603L20.1787 3.45541L20.1253 3.35706L20.0696 3.35964L20.0604 3.31249L19.959 3.3147L19.8162 3.24508L19.7206 3.28413L19.6999 3.07233L19.6684 3.03808L19.668 2.95078L19.6523 2.91284L19.6269 2.91505L19.6027 2.9482L19.5221 2.94894L19.4526 2.98209L19.4208 2.95336L19.2768 2.98393L19.2418 3.0716L19.0652 3.08449L18.8475 3.05834L18.8376 3.01192L18.8015 2.97288L18.8007 2.93236L18.8483 2.91174L18.8245 2.84875L18.8487 2.76477L18.8786 2.72167L18.7239 2.56034L18.7285 2.51503L18.6525 2.51319L18.6275 2.56144L18.5811 2.56771L18.5634 2.59128L18.5427 2.59459L18.5147 2.62259L18.4486 2.62185L18.4406 2.60049L18.32 2.57986L18.3311 2.50988L18.3212 2.50914L18.3242 2.47378L18.009 2.48225L17.991 2.58207L17.9234 2.59165L17.9372 2.67858L17.8647 2.68778L17.8535 2.63106L17.7775 2.53897L17.7737 2.51835L17.7476 2.51651L17.736 2.53566L17.5901 2.53934L17.6124 2.52056L17.6093 2.4852L17.6408 2.48262L17.6324 2.45131L17.6646 2.43363L17.6581 2.36733L17.6047 2.38832L17.5122 2.36585L17.4953 2.3898L17.47 2.37764L17.488 2.3386L17.4796 2.21594L17.4385 2.20231L17.4312 2.14559L17.2692 2.14301L17.2411 2.17174L17.2047 2.17395L17.187 2.2082L17.1455 2.19973L17.1317 2.25977L17.1002 2.26272L17.1129 2.31944L17.1544 2.32792L17.1302 2.38169L17.0787 2.3677L17.0768 2.31171L17.0634 2.27009L17.0323 2.26235L17.0234 2.23141L16.9766 2.22257L16.9743 2.17137L16.901 2.16585L16.9033 2.22736L16.7981 2.23473L16.7946 2.19863L16.7213 2.19347L16.7148 2.22331L16.6572 2.21925L16.6817 2.25646L16.6756 2.27635L16.6956 2.29808L16.6787 2.31723L16.5689 2.31429L16.5712 2.37506L16.6076 2.37285L16.5846 2.41669L16.565 2.39495L16.527 2.42258L16.5255 2.45278L16.504 2.46126L16.4725 2.4642L16.4498 2.49772L16.5036 2.57249L16.5071 2.61301L16.5481 2.62627L16.5716 2.67305L16.6549 2.67931L16.6453 2.76403L16.6971 2.76808L16.7102 2.80897L16.7075 2.85906L16.681 2.86717L16.7247 2.92536L16.6099 3.02703L16.6453 3.14453L16.6042 3.13642L16.6675 3.20567L16.6038 3.23624L16.5835 3.22961L16.5504 3.26203L16.5247 3.26019L16.512 3.30402L16.4809 3.30697L16.4276 3.33791L16.4134 3.40642L16.3926 3.40973L16.3738 3.46793L16.2917 3.45725L16.2598 3.47493L16.2306 3.53718L16.122 3.53497L16.1385 3.61527L16.1842 3.63295L16.1926 3.66794L16.0993 3.76555L16.0697 3.74382L16.0471 3.78176L16.0663 3.80754L16.0229 3.8488L16.0026 3.83775L15.9238 3.7685L15.8175 3.72724L15.7737 3.67494L15.6079 3.67936L15.6163 3.92578L15.4585 3.872L15.4109 3.89815L15.3284 3.88821L15.2527 3.84916H15.0135L15.0082 3.73571L14.8661 3.75671L14.7548 3.80423L14.6914 3.67678L14.5712 3.66978L14.5804 3.29297L14.6599 3.27308L14.6549 3.1379L14.6707 3.139L14.6645 3.0285L14.6277 3.02629L14.6008 2.90916L14.6338 2.87085L14.7125 2.87601L14.7613 2.8388L14.8707 2.86091L14.8895 2.78134L14.777 2.71394L14.7693 2.39495L14.6434 2.38206L14.6108 2.2885L14.6442 2.24504L14.7048 2.18795L14.7033 1.9942L14.6077 2.01409L14.5298 1.77393L14.7248 1.67522L14.7924 1.66895L14.8135 1.64943L14.7728 1.54593L14.7206 1.54114L14.5797 1.45642L14.7229 1.40743L14.638 1.18348L14.6595 1.15401L14.6438 1.13191L14.6054 0.992311L14.7885 0.924904L15.0212 0.870022L15.0796 0.880335L15.1141 0.836503L15.126 0.830241L15.2408 0.814034L15.313 0.819559L15.3433 0.788618L15.3967 0.782725L15.4858 0.762098L15.4942 0.753626L15.5015 0.714582L15.5107 0.705005L15.5272 0.706847L15.5603 0.725264L15.639 0.722685L15.6885 0.740366L15.7081 0.734472L15.7238 0.722685L15.7518 0.722317L15.8451 0.685114L15.8567 0.663382L15.8678 0.611446L15.8793 0.595239L15.9039 0.575717L15.9231 0.56835L15.9538 0.569824L16.039 0.610341L16.0959 0.596344L16.1719 0.591924L16.183 0.580874L16.1749 0.55509L16.1849 0.511626L16.2053 0.48179L16.236 0.453796L16.2149 0.435747L16.2057 0.418435L16.173 0.38197L16.1669 0.370183L16.1726 0.341821L16.1534 0.312722L16.1542 0.30646L16.211 0.305355L16.2387 0.293568L16.2494 0.296146L16.2775 0.318247L16.2871 0.314563L16.2982 0.299461L16.3109 0.295041L16.3811 0.302776L16.4529 0.288043L16.4687 0.303145L16.4817 0.30425L16.494 0.282518L16.504 0.226898L16.5113 0.215111L16.5324 0.205534L16.5462 0.190801L16.5524 0.162807L16.5639 0.146231L16.5616 0.114922L16.5785 0.096137L16.5923 0.0917169L16.628 0.0990838L16.747 0.17533L16.7628 0.180119L16.7712 0.172752L16.7773 0.155808L16.7662 0.113449L16.7451 0.0906119L16.7332 0.0884019L16.7148 0.0968737L16.7079 0.0920853L16.7044 0.0401492L16.7105 0.016207L16.7294 0L16.7566 0.000736683L16.8084 0.0158387L16.8706 0.0534095L16.886 0.0732999Z" fill="white"/>
<path d="M24.6254 4.79212L24.6404 4.81495L24.6915 4.93098L24.8078 5.15309L24.8147 5.17593L24.9084 5.35678L24.9218 5.39436L24.9276 5.37999L24.9372 5.40577L24.9879 5.49086L25.0194 5.55679L25.009 5.4857L25.0124 5.45255H25.024L25.0293 5.47281L25.1042 5.47244L25.1027 5.40946L25.1096 5.38883L25.1384 5.38552L25.1476 5.36526L25.2006 5.36378L25.2025 5.35642L25.2129 5.35384L25.2413 5.35494L25.2808 5.31185L25.31 5.31148L25.3073 5.28975L25.3173 5.24702L25.3169 5.19103L25.3142 5.16782L25.2854 5.13873L25.2889 5.04885L25.3127 5.04369L25.4244 5.04775L25.4305 5.03007L25.4309 4.98034L25.4425 4.9494L25.4609 4.93246L25.5453 4.9564L25.5718 4.96671L25.5937 4.98329L25.634 4.99139L25.6294 5.00465L25.6383 5.01533L25.7055 5.03927L25.7438 5.06727L25.7623 5.05548L25.7815 5.02601L25.7984 5.03191L25.8133 5.05364L25.8137 5.09747L25.7976 5.16893L25.7627 5.22234L25.7584 5.26028L25.7477 5.28717L25.7511 5.32842L25.8233 5.33063L25.9458 5.28606L25.9969 5.2868L25.9999 5.3019L26.0065 5.30264L26.0091 5.30853L26.0103 5.338L26.0222 5.34279L26.0291 5.37373L26.013 5.39472L26.0226 5.41314L26.0395 5.41609L26.0614 5.47097L26.0625 5.48497L26.0406 5.52843L26.0402 5.55053L26.0625 5.55569L26.1666 5.56011L26.2741 5.54022L26.2791 5.5369L26.2825 5.49233L26.2867 5.48902L26.2975 5.49454L26.2963 5.51333L26.3478 5.4846L26.4411 5.49749L26.4561 5.50375L26.5167 5.55458L26.5555 5.566L26.597 5.56195L26.6115 5.55421L26.6342 5.52733L26.6453 5.52438L26.6799 5.52769L26.7152 5.5218L26.7463 5.53027H26.777L26.8208 5.54611L26.845 5.54722L26.8588 5.54317L26.9344 5.49675L26.9663 5.46544L26.9736 5.44924L26.9744 5.39436L26.9859 5.34537L27.0158 5.33726L27.0819 5.36305L27.1249 5.37299L27.1652 5.37557L27.1848 5.36415L27.1974 5.34352L27.2516 5.29269L27.2596 5.2728L27.2546 5.24555L27.2646 5.24002L27.2846 5.2426L27.293 5.25144L27.3069 5.25512L27.3172 5.27906L27.3218 5.28312L27.3284 5.28127L27.3368 5.2949L27.3706 5.27022L27.414 5.26617L27.48 5.28127L27.5007 5.2658L27.4858 5.2857L27.4911 5.29822L27.5457 5.32105L27.5725 5.31774L27.6132 5.32695L27.6562 5.3461L27.7088 5.38994L27.7645 5.39583L27.7856 5.4032L27.8002 5.41277L27.8985 5.51959L27.9104 5.58884L27.9181 5.6021L27.9665 5.65256L27.9895 5.69455H27.9953L28.0302 5.72549L28.0686 5.7778L28.1031 5.80948L28.1139 5.82863L28.1181 5.8441L28.0978 5.87762L28.0966 5.89861L28.1319 6.00433L28.1308 6.02053L28.115 6.05369L28.1154 6.06658L28.1358 6.10304L28.1819 6.15351L28.1907 6.15866L28.246 6.15645L28.2828 6.12588L28.2959 6.12478L28.3569 6.17819L28.3815 6.18924L28.4372 6.20028L28.4571 6.21281L28.4882 6.24301L28.5028 6.24964L28.547 6.2537L28.5581 6.2688L28.5616 6.29569L28.6157 6.29679L28.6345 6.30232L28.6837 6.34099L28.7044 6.37267L28.7105 6.39993L28.7017 6.41024L28.6844 6.39919L28.6764 6.40803L28.6787 6.42424L28.6683 6.44855L28.671 6.49091L28.6821 6.51227L28.6971 6.52258L28.7631 6.54174L28.7731 6.56642V6.59109L28.8315 6.69313L28.838 6.71486L28.8403 6.74175L28.8299 6.78411L28.8334 6.7981L28.8434 6.81505L28.8749 6.82831L28.8925 6.85593L28.9278 6.85262L28.9486 6.86588L28.9566 6.88098L28.982 6.87324L28.9985 6.88466L29.0131 6.87324L29.0227 6.85446L29.0515 6.84267L29.096 6.84083L29.1429 6.8563L29.1705 6.88724L29.1878 6.89203L29.2465 6.87693L29.2707 6.88282L29.301 6.90161L29.3701 6.89498L29.379 6.89682L29.3878 6.90787L29.3778 6.94839L29.3817 6.9576L29.4151 6.96975L29.4554 6.94028L29.4765 6.93476L29.5087 6.93623L29.5498 6.9959L29.5564 6.99701L29.5825 6.97491L29.5744 6.93955L29.6055 6.90087L29.6032 6.86993L29.6078 6.8633L29.698 6.83236L29.7479 6.80216L29.7925 6.74285L29.8339 6.71596L29.8493 6.69239L29.8662 6.68871L29.8835 6.67324L29.8946 6.65408L29.8831 6.6353L29.8873 6.62056L30.0286 6.62093L30.0305 6.63088L30.0021 6.68723L30.0029 6.70528L30.0136 6.72259L29.9917 6.74064L29.9507 6.76274L29.9284 6.75611L29.8931 6.79921L29.8919 6.82978L29.9027 6.86477L29.9196 6.88135L29.9587 6.87509L30.0274 6.90603L30.0294 6.91118L30.0148 6.92518L30.0436 6.94802L30.0317 6.98522L30.0359 7.0099L30.1069 7.04858L30.1127 7.09388L30.1027 7.10714L30.1019 7.11819L30.1238 7.14324L30.1319 7.16976L30.1499 7.17786L30.1756 7.17602L30.2029 7.22096L30.3162 7.23054L30.3749 7.26479L30.3845 7.27879L30.4079 7.37382V7.39187L30.396 7.39003L30.3757 7.37493L30.3404 7.37603L30.3177 7.3543L30.2755 7.33625L30.1518 7.39113L30.1177 7.39187L30.09 7.37566H30.0797L30.0597 7.39555L30.0478 7.44565L29.9914 7.4799L29.9741 7.50053L29.9687 7.51047L29.9668 7.54142L29.9768 7.59298L30.034 7.6626L30.0344 7.68654L29.9956 7.71454L29.9902 7.72338L29.9864 7.74584L30.0033 7.77678L29.9987 7.8092L29.9526 7.85929L29.9407 7.89134L29.9303 7.89907L29.9023 7.90644L29.8931 7.93886L29.8789 7.95506L29.8685 7.99448L29.8336 8.00147L29.7529 8.04678L29.7203 8.0302L29.703 8.03757L29.6669 8.03978L29.6354 8.07919L29.5898 8.11013L29.5529 8.10977L29.4412 8.0954L29.4047 8.11529L29.3675 8.10608L29.3367 8.11824L29.3106 8.12082L29.2296 8.18454L29.2081 8.22395L29.2047 8.26484L29.1647 8.36208L29.1398 8.40849L29.1367 8.44496L29.1409 8.48695L29.1263 8.52268L29.1233 8.54735L29.0933 8.60408L29.0887 8.64018L29.1267 8.84166L29.1478 8.99194L29.1348 9.08476L29.162 9.15401L29.2054 9.21332L29.212 9.23689L29.1997 9.2903L29.2089 9.32198L29.2043 9.38865L29.1997 9.40191L29.1901 9.40891L29.1306 9.41443L29.1148 9.43101L29.1041 9.48847L29.0822 9.53377L29.0799 9.5684L29.0173 9.5625L28.9705 9.57466L28.949 9.56692L28.9255 9.58166L28.9025 9.56545L28.8514 9.57429L28.8269 9.62328L28.7528 9.67227L28.7374 9.70026L28.7167 9.70984L28.6871 9.71021L28.6672 9.71978L28.6572 9.76435L28.6238 9.7824L28.5892 9.78167L28.5408 9.81113L28.5347 9.8104L28.5255 9.79787L28.464 9.8034L28.4583 9.7975L28.461 9.79161L28.4894 9.77688L28.5036 9.74446L28.5259 9.72605L28.5151 9.71647L28.5136 9.69952L28.4944 9.69142L28.4879 9.6649L28.4652 9.63433L28.4514 9.62549H28.4349L28.4122 9.63433L28.3604 9.63359L28.3182 9.65348L28.2844 9.64354L28.2717 9.62402L28.2602 9.6196L28.2179 9.63322L28.1907 9.62623L28.1005 9.63065L28.0755 9.6358L28.0363 9.65422L27.9837 9.66748L27.9688 9.66674L27.9231 9.63507L27.8728 9.63433L27.8298 9.61518L27.7622 9.59934L27.7181 9.59897L27.6278 9.5695L27.609 9.55882L27.5825 9.53009L27.5365 9.49252L27.5 9.50246L27.457 9.44832L27.3775 9.4439L27.3253 9.39638L27.252 9.39454L27.2347 9.39786L27.2186 9.40854L27.1909 9.57171L27.1771 9.60302L27.1479 9.61739L27.1329 9.6951L27.1137 9.7592L27.0519 9.89143L27.0389 9.93637L27.0201 10.0564L26.989 10.1636L26.8815 10.3758L26.8611 10.4274L26.8381 10.5099L26.8262 10.6823L26.8027 10.7338L26.7624 10.8023L26.7356 10.8823L26.6799 11.0012L26.6657 11.041L26.653 11.104L26.6549 11.1265L26.5778 11.153L26.5505 11.1302L26.5413 11.072L26.5643 10.9173L26.4434 10.7909L26.385 10.5791L26.1378 10.301L26.1643 10.2675L26.1316 10.2738L26.1213 10.2627L26.1589 10.2358L26.1727 10.1997L26.155 10.2005L26.1309 10.2432L26.1047 10.2244L26.0786 10.2233L26.0537 10.2182L26.0817 10.1762L26.0598 10.1758L26.0264 10.2211L26.0022 10.1942L25.9803 10.1415L25.9385 10.1677L25.9032 10.1688L25.8613 10.1076L25.6294 10.1021L25.4125 9.98573L25.1572 9.87817L25.1603 9.8045L25.0009 9.74115L24.6458 9.86012L24.4116 9.54519L24.0795 9.58092L24.043 9.49104L23.9489 9.48294L23.9117 9.44095L23.8226 9.38533L23.6967 9.28367L23.5765 9.43064L23.4813 9.3345L23.3719 9.45237L23.1791 9.41111L23.1588 9.44721L23.0843 9.47926L22.9964 9.438L22.9499 9.46563L22.9138 9.56103L22.8029 9.52125L22.7303 9.46968L22.6915 9.40633L22.6247 9.37318L22.6835 9.35181L22.7153 9.27741L22.7115 9.19674L22.7821 9.18606L22.8501 9.21479L22.842 9.16027L22.8029 8.9982L22.786 8.99084L22.7706 8.94848L22.8155 8.85308L22.8524 8.70243L22.8893 8.7039L22.8962 8.6155L22.9472 8.61513L22.9027 8.55362L23.0417 8.505L22.9887 8.46448L22.9134 8.47L22.8175 8.38602L22.837 8.33077L22.9027 8.32819L22.9188 8.29025L22.8835 8.27994L22.7668 8.28289L22.7564 8.23574L22.6919 8.20701L22.6643 8.15249L22.7234 8.13518L22.715 8.07919L22.7537 8.04494L22.7917 8.04199L22.8489 8.06078L22.9864 7.92523L22.9856 7.87955L23.0171 7.76168L22.9864 7.67402L22.6808 7.72227L22.6282 7.62171L22.6455 7.55099L22.6389 7.50863L22.7011 7.47769L22.7165 7.49869L22.7879 7.46959L22.7157 7.39739L22.6554 7.36387L22.6535 7.29463L22.5414 7.20586L22.4784 7.18597L22.4804 7.14913L22.4205 7.0832L22.4316 7.02021L22.6078 6.93881L22.8021 6.8703L22.8685 6.77011L22.8839 6.71228L22.8643 6.66182L22.8816 6.59478L22.8589 6.56236L22.8797 6.47728L22.9476 6.47544L22.9806 6.45334L23.0862 6.40692L23.145 6.32847L23.2548 6.2408L23.2717 6.17782L23.3212 6.14982L23.3653 6.22423L23.6859 6.35241L23.8069 6.38114L23.9098 6.33583L24.038 6.11225L24.0891 6.06142L24.0676 5.91556L23.9969 5.8964L24.0238 5.64556L23.8695 5.54722L23.8195 5.52254L23.7589 5.47686L23.7243 5.42677L23.6675 5.41019L23.6472 5.29601L23.5577 5.17188L23.6214 5.11257L23.6387 5.12583L23.7193 5.08458L23.7289 5.04333L23.7746 5.0238L23.7915 5.06101L23.886 5.03264L24.0388 4.93945L24.0776 4.95235L24.0706 4.89783L24.0822 4.85179L24.0438 4.85805L24.0403 4.78954L24.1897 4.76854L24.2104 4.79249L24.3068 4.70187L24.2868 4.63926L24.4012 4.61126L24.4212 4.49892L24.4772 4.49266L24.6254 4.79212Z" fill="white"/>
<path d="M15.4823 10.7088L16.8937 10.7301L17.0288 10.9419L17.0952 11.1519L17.1978 11.4024L17.2899 11.7851L17.3325 11.8433L17.3897 12.1449L17.4569 12.5818L17.4289 12.5998L17.4154 12.6849L17.3636 12.7626L17.3513 12.8765L17.2577 13.1008L17.2596 13.1214L17.159 13.2595L17.2373 13.2861L17.2166 13.317L17.2488 13.4128L17.2891 13.3958L17.306 13.3969L17.2976 13.4327L17.3494 13.4249L17.4285 13.4802L17.4515 13.4257L17.4684 13.4271L17.483 13.485L17.5502 13.4909L17.5686 13.5166L17.5951 13.5067L17.6136 13.5288L17.6001 13.5719L17.6381 13.6073L17.6658 13.5896L17.685 13.6036L17.6581 13.6492L17.6815 13.6673L17.7057 13.6776L17.6865 13.696L17.7118 13.7303L17.7019 13.8098L17.7042 13.8577L17.7188 13.875L17.7003 13.9214L17.7787 13.9679L17.8336 13.9649L17.842 13.9973L17.8862 14.0132L17.8904 14.0448L17.9146 14.0511L17.9238 14.0754L17.9453 14.1045L17.986 14.1119L18.0367 14.197L18.0962 14.1819L18.1096 14.2051L18.0962 14.2415L18.1284 14.243L18.1288 14.2655L18.1707 14.3019L18.1611 14.3204L18.1603 14.3443L18.1672 14.3605L18.1637 14.3745L18.1733 14.3822L18.2114 14.3793L18.1814 14.4154L18.1365 14.4415L18.1254 14.4419L18.1042 14.4264L18.0797 14.4485L18.0662 14.4699L18.0159 14.523L18.0136 14.5425L17.9787 14.6268L17.9599 14.6305L17.9403 14.6132L17.928 14.6099L17.9272 14.5753L17.9184 14.5613L17.8777 14.5395L17.8343 14.5031L17.8174 14.5027L17.8113 14.5097L17.8028 14.5484L17.7821 14.5723L17.7518 14.5948L17.7579 14.6511L17.718 14.6758L17.6903 14.6843L17.6589 14.7182L17.6305 14.7767L17.5575 14.8162L17.5406 14.8541H17.5295L17.5214 14.8305L17.5041 14.8327L17.4734 14.899L17.4262 14.9174L17.407 14.9016L17.387 14.8964L17.3602 14.9127L17.3095 14.9178L17.2818 14.941L17.2292 14.9546L17.1686 15.0125L17.1501 15.0493L17.1071 15.0615L17.0803 15.0836L17.0684 15.1035L17.0749 15.1171L17.0937 15.1289L17.0883 15.1447L17.0818 15.1477L17.0461 15.1421L17.0031 15.1521L16.9705 15.1403L16.9229 15.1458L16.9044 15.1565L16.8868 15.1933L16.8511 15.2129L16.8326 15.2571L16.8219 15.2641L16.7996 15.2523L16.7912 15.2548L16.7593 15.3024L16.7562 15.3444L16.7305 15.3679L16.7255 15.3959H16.7082L16.6975 15.4029L16.6641 15.4375L16.5934 15.5359L16.5815 15.5617L16.5765 15.59L16.555 15.6088L16.5255 15.6199L16.5024 15.6383L16.494 15.6132L16.5228 15.5945L16.5017 15.5852L16.4886 15.5911L16.4779 15.5871L16.4698 15.5635L16.4318 15.5864L16.4268 15.5771L16.3473 15.5724L16.3477 15.5922L16.4061 15.5959L16.4203 15.6173L16.4065 15.6313L16.4222 15.6703L16.4084 15.7853L16.4614 15.8556L16.4794 15.9064L16.5182 15.9263L16.532 15.9587L16.4625 15.9853L16.4237 15.9827L16.4107 16L16.332 15.9779L16.3408 15.9602L16.3101 15.9359L16.2798 15.9436L16.2137 15.8895L16.1527 15.8689L16.0947 15.8066L16.0018 15.7539L15.9622 15.7436L15.9392 15.7127L15.9511 15.6773L16.0168 15.6751L16.0152 15.5945L16.039 15.5716L16.0168 15.5182L16.0394 15.4954L16.0793 15.4873L16.0667 15.4799L16.0571 15.484L16.0348 15.4641L15.9857 15.4946L15.9722 15.4762L15.9484 15.4965L15.8951 15.4486L15.862 15.4103L15.8478 15.4066L15.8252 15.3867L15.5768 15.3793L15.5365 15.3889L15.5222 15.3871L15.5084 15.3782L14.9832 15.3407L14.9271 14.727L14.5382 14.6817L14.5417 14.3915L14.5566 14.3745L14.5582 14.2725L14.6104 14.2942L14.6115 14.2798L14.6764 14.2949L14.9778 13.9951L15.0826 14.057L15.2927 13.8537L15.4792 13.7192L15.6785 13.6485L15.9262 13.5299L15.9991 13.485L16.0022 13.4526L15.9492 13.4662L15.9204 13.3999L15.9334 13.3476L15.8901 13.3494L15.8981 13.3052L15.8574 13.3273L15.8693 13.3892L15.8375 13.408L15.8152 13.3133L15.8908 13.2923L15.9062 13.2117L15.9 13.1789L15.9711 13.1089L15.9707 12.9535L16.0444 13.015L16.0763 13.0002L16.0847 12.8941L16.0628 12.8396L16.0471 12.8183L16.0855 12.7792L16.1308 12.7615L16.1596 12.7836L16.2122 12.7336L16.0072 12.5932L15.9215 12.4934L15.9196 12.4599L15.834 12.4138L15.7887 12.4278L15.7092 12.3534L15.7181 12.2915L15.733 12.2713L15.7284 11.5678L15.6098 11.5191L15.4681 11.4064L15.5153 11.2392L15.5226 11.1335L15.5457 11.058L15.591 10.9965L15.6125 10.9508L15.5898 10.8812L15.472 10.7939L15.4823 10.7088Z" fill="white"/>
<path d="M3.27576 4.50592L3.36292 4.50849L3.37482 4.50039L3.404 4.52065L3.44585 4.51107L3.45122 4.51623L3.4685 4.51255L3.47272 4.5177L3.48808 4.5166L3.48885 4.50886L3.55681 4.4956L3.57485 4.50997L3.57792 4.52618L3.62515 4.53723L3.63052 4.58253L3.62937 4.62526L3.62016 4.63741L3.55642 4.64073L3.54222 4.64294L3.53838 4.6492L3.54145 4.66467L3.55796 4.67535L3.56372 4.6864L3.56333 4.71292L3.59174 4.72434L3.64818 4.72213L3.67775 4.73318L3.74494 4.70077L3.76375 4.67535L3.76336 4.64883L3.77987 4.64331L3.79485 4.67425L3.81596 4.6702L3.82556 4.67388L3.83938 4.69635L3.81865 4.73576L3.82595 4.74718L3.84169 4.74902L3.88814 4.72582L3.90965 4.70556L3.94689 4.69193L3.95034 4.68677L3.9227 4.62342L3.92155 4.60905L3.93575 4.57664L3.9968 4.50297L4.06591 4.50739L4.1235 4.5387L4.15229 4.53023L4.18339 4.53391L4.20835 4.52028L4.22294 4.49965L4.23254 4.46135L4.25749 4.45656L4.29781 4.46356L4.32929 4.44182L4.32775 4.41641L4.34734 4.40757L4.36692 4.41494L4.37306 4.42193L4.38842 4.53317L4.43219 4.58879L4.45292 4.63594L4.47864 4.65915L4.48594 4.70298L4.51588 4.7225L4.51627 4.73392L4.50974 4.73871L4.5132 4.75381L4.52817 4.75933L4.52932 4.75418L4.55197 4.74202L4.55082 4.76191L4.57463 4.76375L4.56695 4.74718L4.57386 4.7435L4.58307 4.7527L4.58883 4.75123L4.59114 4.72324L4.59805 4.72213L4.60611 4.7516L4.61955 4.7597L4.61417 4.73687L4.65026 4.72618L4.66332 4.73024L4.65948 4.70519L4.67714 4.7144V4.69524L4.68328 4.68383L4.68866 4.6923L4.68712 4.70335L4.6948 4.69782L4.70056 4.7074L4.71093 4.70224L4.71284 4.71513L4.73166 4.7074L4.75201 4.71698L4.77197 4.70961L4.7712 4.71661L4.75009 4.72876L4.75393 4.74165H4.76045L4.77005 4.73171L4.77965 4.7376L4.78503 4.71513L4.79693 4.7155L4.79539 4.72987L4.80537 4.73797L4.81612 4.75897L4.82188 4.75455L4.81728 4.74018L4.83763 4.74792L4.83455 4.73024L4.85567 4.73981L4.8933 4.72434L4.90673 4.71182L4.91518 4.71108L4.92171 4.72103L4.93591 4.72618L4.97047 4.72287L4.97085 4.71182L4.95588 4.69598L4.95857 4.68383L4.97853 4.68898L4.99312 4.67167L4.99926 4.67572L4.99043 4.6934L4.99466 4.69856L5.01116 4.70408L5.03574 4.6993L5.04572 4.70372L5.05801 4.72803L5.0676 4.72839L5.07605 4.71035L5.09486 4.70003L5.11867 4.69303L5.13019 4.69709L5.14439 4.71771L5.16397 4.72176L5.18087 4.73724L5.18125 4.75344L5.21504 4.76928L5.21888 4.78217L5.24537 4.79285L5.27877 4.7947L5.28299 4.81164L5.29874 4.82895L5.32062 4.84L5.32484 4.85363L5.3187 4.86137L5.2972 4.86431L5.31755 4.88899L5.31256 4.91183L5.30373 4.91662L5.30104 4.9343L5.30603 4.94977L5.33521 4.97592L5.34174 4.99397L5.33905 5.0087L5.35249 5.02491L5.36861 5.02012L5.40125 5.03559L5.40662 5.05143L5.41776 5.04406L5.43273 5.04627L5.45077 5.04001L5.47266 5.06322L5.48149 5.06506L5.50798 5.06027L5.51566 5.0529L5.56711 5.07684L5.57632 5.08826L5.61779 5.09784L5.63199 5.1111L5.62931 5.12289L5.63698 5.12915L5.68229 5.14315L5.69726 5.15714L5.70725 5.18182L5.69611 5.20945L5.69841 5.22271L5.70187 5.22381L5.70763 5.20982L5.71377 5.20724L5.73489 5.23707L5.73604 5.24739L5.72299 5.25107L5.71646 5.25954L5.72875 5.27022L5.72798 5.28643L5.74679 5.29343L5.74295 5.31258L5.77021 5.33321L5.7967 5.38957L5.81436 5.41277L5.8278 5.41977L5.92302 5.42714L5.97485 5.45403L5.97715 5.47465L5.94145 5.53248L5.92993 5.58L5.93876 5.62088L5.91035 5.67503L5.90805 5.70708L5.97139 5.801L5.99443 5.79953L6.01401 5.78811L6.02553 5.80395L5.93147 5.91151L5.94414 5.94355L5.86466 6.02459L5.92072 6.09936L5.90689 6.17708L5.90958 6.27174L5.9449 6.28206L5.94721 6.31042L5.9975 6.33326L6.0071 6.38924L5.9737 6.45407L5.97639 6.48686L5.90459 6.60804L5.94836 6.65924H5.86581L5.85007 6.69865L5.79824 6.76127L5.81552 6.79184L5.74218 6.83346L5.67845 6.82241L5.5863 6.82425L5.57287 6.87767L5.49992 6.8773L5.44233 6.92702L5.412 7.00143L5.36554 6.97933L5.39165 7.03679L5.3425 7.19775L5.34941 7.29978L5.32484 7.33551L5.18048 7.45301L5.20006 7.49685L5.0845 7.53184L4.82534 7.53147L4.77927 7.51011L4.73511 7.60956L4.66869 7.58193L4.68021 7.84493L4.59037 7.84861L4.53815 8.0593L4.55505 8.11234L4.50245 8.14292L4.4222 8.14476L4.25826 8.05562L4.22563 8.05967L4.19913 8.10461L3.95994 8.0523L3.9657 7.9639L3.99142 7.94659L3.97146 7.90755L3.65586 7.85524L3.56717 7.89429L3.41283 7.9046L3.37098 8.02947L3.30225 8.06998L3.27154 8.05525L3.20205 8.11897L3.15521 8.12008L2.74516 8.38418L2.59389 8.53299L2.46834 8.53004L2.42764 8.56209L2.19536 8.54993L2.20112 8.66043L1.83599 8.52157L1.62905 8.46595L0.97098 8.3956L0.591265 8.3385L0.503727 8.34293L0.390849 8.30683L0.324044 8.23095L0.327499 8.21879L0.322508 8.21511L0.286418 8.21585L0.233819 8.20443L0.138602 8.1606L0.0222684 8.11824L0 8.10203L0.0813949 7.88287L0.132075 7.76905L0.169317 7.66297L0.21347 7.5672L0.332107 7.49648L0.381251 7.4346L0.407359 7.3705L0.417725 7.32078L0.411966 7.29647L0.394689 7.27289L0.277588 7.17234L0.216541 7.13771L0.214622 7.12335L0.231131 7.02868L0.244185 6.89203L0.273748 6.83567L0.284882 6.75722L0.284498 6.68392L0.298704 6.58078L0.309454 6.55684L0.317517 6.54837L0.358599 6.54763L0.459574 6.51043L0.49912 6.48501L0.545577 6.44044L0.576676 6.39477L0.626588 6.29863L0.631195 6.28611L0.621596 6.25627L0.572836 6.18187L0.62198 6.13362L0.618909 6.12036L0.603935 6.11409L0.603551 6.057L0.616605 6.03379L0.674196 6.02974L0.682259 6.02495L0.683027 5.9826L0.697232 5.97412L0.709134 5.93987L0.757894 5.89493L0.789377 5.88756L0.843129 5.91482L0.87154 5.94981L0.93297 5.98112L0.926444 5.99365L0.951016 6.02495L0.95831 6.03085L0.986722 6.03453L0.989409 6.05295L1.01206 6.08389L1.05161 6.11962L1.08309 6.16014L1.09269 6.19034L1.11265 6.20618L1.11611 6.23749L1.14298 6.25959L1.15489 6.28058L1.18675 6.29016L1.1952 6.30158L1.21977 6.4095L1.23398 6.42313L1.23628 6.44155L1.24473 6.45518L1.26469 6.46917L1.28504 6.50343L1.2908 6.52921L1.28581 6.54358L1.29464 6.54984L1.32651 6.55573L1.34263 6.54579L1.35569 6.54874L1.36567 6.56752L1.3768 6.57194L1.38256 6.59257L1.40445 6.58299L1.41673 6.59478L1.4175 6.60767L1.43977 6.61651L1.44591 6.61135L1.4463 6.58225L1.6709 6.48428L1.76612 6.39477L1.77725 6.37709L1.76036 6.33031L1.75805 6.30784L1.71121 6.299L1.69086 6.28979L1.68587 6.28022L1.68779 6.26032L1.69624 6.25001L1.702 6.22644L1.70392 6.20286L1.69317 6.1745L1.65746 6.11851L1.64518 6.08057L1.63404 5.98407L1.59718 5.79843L1.60793 5.76417L1.5968 5.73544L1.54842 5.70965L1.53998 5.69418L1.53921 5.67908L1.55418 5.66177L1.57031 5.65735L1.59488 5.66288L1.64518 5.70745L1.70277 5.71186L1.72811 5.73249L1.73771 5.73323L1.76996 5.69676L1.82256 5.66766L1.85557 5.62088L1.93774 5.52733L1.97536 5.50707L2.03871 5.49344L2.07212 5.46581L2.11742 5.46213L2.17463 5.44261L2.18231 5.42088L2.1754 5.39988L2.14391 5.3299L2.13124 5.31L2.11013 5.29417L2.10936 5.28496L2.15044 5.21902L2.14506 5.17261L2.15466 5.1634L2.1777 5.15788L2.18154 5.13541L2.21033 5.14167L2.24374 5.15972L2.25948 5.15899L2.31093 5.1413L2.38618 5.15456L2.41651 5.15235L2.49253 5.08716L2.5148 5.05916L2.56433 5.01644L2.72942 4.95677L2.77741 4.94829L2.88722 4.89562L2.89067 4.8912L2.87685 4.88162L2.86188 4.8459L2.89067 4.81753L2.8899 4.80611L2.87378 4.78954L2.95633 4.78254L2.95863 4.74202H2.99434L2.99626 4.72508L2.97859 4.6864L2.98589 4.62931L2.99626 4.5969L3.00739 4.59432L3.01468 4.60169L3.02121 4.59653L3.03619 4.54975L3.07765 4.55012L3.09454 4.55859L3.14714 4.56596L3.14791 4.58769L3.11144 4.62194L3.10913 4.63115L3.17556 4.62379L3.1817 4.612L3.19206 4.60758L3.20397 4.52802L3.17671 4.51365L3.16289 4.49818L3.15789 4.45398L3.16672 4.40904L3.18784 4.4072L3.2558 4.43814L3.27576 4.50592Z" fill="white"/>
<path d="M20.6286 10.7106L20.5687 10.8362L20.4977 10.9511L20.53 11.3269L20.5707 11.4296L20.3453 11.4138L20.3587 11.602L20.568 11.6072L20.5741 11.7302L20.6033 11.7637L20.6179 11.8075L20.8575 11.9685L20.9289 12.0867L20.8947 12.2076L20.9189 12.244L21.0613 12.3748L21.228 12.3921L21.2406 12.3936L21.312 12.4566L21.3585 12.4628L21.4007 12.5177L21.4783 12.5685L21.4817 12.6916L21.4648 12.7343L21.4318 12.7708L21.4491 12.8418L21.4314 12.8879L21.403 12.9008L21.2399 13.0496L21.2402 13.1129L21.3662 13.1553L21.3915 13.1387L21.4338 13.1439L21.4226 13.1781L21.5343 13.1649L21.5612 13.2083L21.4622 13.3236L21.4537 13.4069L21.4821 13.4231L21.4718 13.4654L21.5006 13.4776L21.5182 13.5476L21.5904 13.5619L21.7309 13.6257L21.711 13.6647L21.668 13.6772L21.6764 13.6931L21.7486 13.6853L21.79 13.7104L21.8288 13.6942L21.8365 13.7288L21.8423 13.7281L21.8238 13.759L21.8104 13.8209L21.8012 13.8364L21.7697 13.8592L21.6933 13.836L21.6015 13.8319L21.5724 13.8375L21.5547 13.8349L21.476 13.8017L21.4407 13.8065L21.4092 13.8198L21.3865 13.8161L21.38 13.8095L21.3531 13.808L21.332 13.78L21.2986 13.7664L21.2948 13.7568L21.2614 13.741L21.2399 13.7207L21.2091 13.717L21.1869 13.7008L21.1804 13.7045L21.1773 13.6868L21.1704 13.6787L21.1151 13.6562L21.1005 13.6673H21.0429L21.0176 13.6345L21.0083 13.6036L20.9872 13.5855L20.9573 13.5712L20.9477 13.5432L20.9316 13.5358L20.9008 13.5093L20.8889 13.5122L20.874 13.503L20.8671 13.5071L20.8529 13.4824L20.8168 13.4791L20.806 13.4665L20.7937 13.4732L20.7788 13.4654L20.7461 13.4618L20.74 13.4544L20.7208 13.4511L20.7104 13.4297L20.6359 13.4345L20.6175 13.4301L20.6071 13.436L20.6233 13.468L20.6206 13.4758L20.6091 13.4817L20.5964 13.482L20.5653 13.4986L20.53 13.5078L20.4935 13.4971L20.4785 13.4805L20.457 13.4747L20.4205 13.5317L20.4098 13.5671L20.3568 13.5527L20.3261 13.5561L20.2217 13.6087L20.1717 13.6286L20.1621 13.6397L20.1591 13.6459L20.1664 13.6588L20.1644 13.6706L20.1495 13.7015L20.1295 13.7262L20.1188 13.7524L20.1214 13.8728L20.0903 13.9296L20.0619 14.0246L20.0604 14.0787L20.0731 14.1369L20.1291 14.2062L20.1268 14.2275L20.1122 14.2345L20.1003 14.236L20.0827 14.2242L20.004 14.2172L19.9771 14.1959L19.9775 14.1502L19.9683 14.141L19.9253 14.1388L19.8258 14.1126L19.7724 14.1178L19.7513 14.1126L19.7279 14.1204L19.7103 14.1141L19.6799 14.113L19.6565 14.096L19.6266 14.0913L19.6077 14.0813L19.5559 14.0124L19.4983 13.9951L19.4534 13.9712L19.4392 13.969L19.4108 13.9756L19.3732 13.9679L19.2115 13.896L19.1743 13.8949L19.1436 13.9045L19.1251 13.9005L19.1094 13.9148L19.091 13.9181L19.0675 13.9104L19.0437 13.8865L18.99 13.8717L18.9669 13.8577L18.9558 13.8426L18.8998 13.8246L18.866 13.826L18.823 13.8489L18.7596 13.8662L18.7239 13.8905L18.6817 13.8809L18.6713 13.8669L18.6421 13.8474L18.6287 13.847L18.6064 13.857L18.5473 13.8592L18.5293 13.8787L18.4628 13.8754L18.4571 13.8828L18.4578 13.8997L18.426 13.9601L18.3864 13.9804L18.3883 14.0172L18.3795 14.0412L18.287 14.0515L18.2636 14.0714L18.2617 14.0802L18.2755 14.1005L18.3246 14.1351L18.3254 14.1535L18.3135 14.1778L18.3004 14.1819L18.2835 14.1771L18.2524 14.1517L18.2402 14.1616L18.2244 14.1856L18.2198 14.2176L18.2079 14.2493L18.1929 14.2714L18.1818 14.2773L18.1707 14.3019L18.1288 14.2655L18.1284 14.243L18.0962 14.2415L18.1096 14.2051L18.0962 14.1819L18.0367 14.197L17.986 14.1119L17.9453 14.1045L17.9238 14.0754L17.9146 14.0511L17.8904 14.0448L17.8862 14.0132L17.842 13.9973L17.8336 13.9649L17.7787 13.9679L17.7003 13.9214L17.7188 13.875L17.7042 13.8577L17.7019 13.8098L17.7118 13.7303L17.6865 13.696L17.7057 13.6776L17.6815 13.6673L17.6581 13.6492L17.685 13.6036L17.6658 13.5896L17.6381 13.6073L17.6001 13.5719L17.6136 13.5288L17.5951 13.5067L17.5686 13.5166L17.5502 13.4909L17.483 13.485L17.4684 13.4271L17.4515 13.4257L17.4285 13.4802L17.3494 13.4249L17.2976 13.4327L17.306 13.3969L17.2891 13.3958L17.2488 13.4128L17.2166 13.317L17.2373 13.2861L17.159 13.2595L17.2596 13.1214L17.2577 13.1008L17.3513 12.8765L17.3636 12.7626L17.4154 12.6849L17.4289 12.5998L17.4569 12.5818L17.3897 12.1449L17.3325 11.8433L17.2899 11.7851L17.1978 11.4024L17.0952 11.1519L17.0288 10.9419L16.8937 10.7301L17.9507 10.7279L18.5488 10.7132L18.6809 10.7224L19.3954 10.697L20.6286 10.7106Z" fill="white"/>
<path d="M10.6543 9.89401L10.642 9.94521V10.0041L10.6378 10.0671L10.7115 10.1537L10.814 10.1496L10.9288 10.1692L10.9699 10.1375L10.9987 10.1415L11.001 10.2034L10.9887 10.3253L10.9419 10.402L10.8689 10.4436L10.7994 10.4686L10.7457 10.5154L10.6673 10.5287L10.5979 10.5905L10.5856 10.6355L10.5595 10.6705L10.5003 10.6823L10.4535 10.6955L10.4447 10.7312L10.4289 10.7511L10.4186 10.8079L10.4082 10.8561L10.3698 10.8812L10.3732 10.9128L10.3752 10.953L10.4116 10.9913L10.4274 11.0499L10.4397 11.0981L10.4362 11.1582L10.4082 11.22L10.3994 11.2569L10.4343 11.2819L10.4516 11.342L10.4535 11.4771L10.4343 11.5188V11.5622L10.4535 11.6241L10.4865 11.651L10.5023 11.6978L10.5476 11.7011L10.5771 11.7361L10.6086 11.8344L10.6259 11.911L10.6155 11.9829L10.5894 12.0547L10.5668 12.0665L10.5495 12.0831L10.5295 12.0982L10.2546 11.9077H10.2538V11.9074L9.6142 11.4642L9.61344 11.4646L9.61228 11.4363L9.6 11.4046L9.57735 11.3828L9.54932 11.3663L9.54049 11.3379L9.53358 11.3077L9.51092 11.2628L9.53012 11.2396L9.53358 11.2027L9.52667 11.146L9.5355 11.1125L9.51976 11.0841H9.48482L9.46063 11.0756L9.44681 11.0605L9.4207 11.0473L9.40688 11.0639L9.39459 11.0907L9.36848 11.1092L9.34737 11.1206L9.31627 11.1195L9.29554 11.1095H9.27135L9.26252 11.1261V11.1611L9.24677 11.171L9.24294 11.2075L9.05826 11.0797L8.98954 11.1051L8.99146 11.0742L9.01603 11.0348L9.04905 11.0189L9.05327 10.9482L9.08207 10.8694L9.11892 10.7946L9.15156 10.7511L9.18842 10.7276L9.26636 10.7117L9.32894 10.6797L9.33009 10.6793V10.6826L9.34391 10.6848L9.36464 10.7014L9.40995 10.708L9.45679 10.7047L9.47253 10.6915L9.49672 10.6664L9.52974 10.648L9.56621 10.6664L9.5977 10.6882L9.58387 10.7184L9.55239 10.7519L9.52974 10.7836L9.509 10.8152L9.50017 10.8554L9.49825 10.8904L9.50363 10.9173H9.54356L9.58541 10.9022L9.62726 10.8988L9.66028 10.9106L9.68792 10.8889L9.70366 10.8487L9.7194 10.8005L9.74551 10.8138L9.7697 10.802L9.79043 10.7685L9.79926 10.7184L9.79235 10.6498L9.78352 10.6215L9.78199 10.5913L9.79581 10.543L9.77661 10.5014L9.72094 10.413L9.69483 10.3762L9.69291 10.336L9.7171 10.3309L9.79005 10.329L9.84226 10.3309L9.88757 10.3393L9.91713 10.3743L9.91521 10.4296L9.92059 10.4745L9.93633 10.4996L9.93095 10.5412L9.92212 10.5695L9.94631 10.5828L9.99853 10.5795L10.0281 10.5511L10.0665 10.5195L10.0995 10.501L10.1586 10.5077L10.237 10.5228L10.2769 10.5312L10.3168 10.553L10.3602 10.5979L10.407 10.613L10.5061 10.5946H10.5479L10.5844 10.5714L10.6278 10.5463L10.6435 10.4929L10.6451 10.4196L10.6224 10.378L10.586 10.3246L10.5806 10.2929L10.5787 10.2594L10.5456 10.266L10.5176 10.2996L10.46 10.3379L10.4147 10.3228L10.3817 10.2977L10.361 10.2594H10.3176L10.2688 10.266L10.2254 10.2778L10.1905 10.2944H10.1486L10.0964 10.2727L10.0792 10.2476L10.053 10.1924L10.0308 10.1658L10.0354 10.0922L10.0661 10.0528L10.2354 9.94447H10.2869L10.323 9.9791L10.3433 10.0185L10.3383 10.1169L10.3487 10.1515L10.3763 10.1327V10.0185L10.4339 10.0343L10.4831 10.0579L10.5241 10.0384L10.5529 10.0067L10.5817 9.99088V9.94521L10.5326 9.90985L10.4957 9.9058L10.4546 9.88628L10.4589 9.85091L10.5245 9.84686H10.5614L10.5982 9.87817L10.6543 9.89401ZM10.058 11.0686L10.0949 11.0458L10.1318 11.0307L10.1636 11.013H10.3621L10.3514 10.9953L10.2746 10.9928L10.2032 10.9802L10.1847 10.9423L10.0895 10.932L10.0262 10.9372L9.96551 10.9397L9.90216 10.9548L9.89947 11.0082L9.89678 11.0845H9.97626L10.058 11.0686Z" fill="white"/>
</svg>
